<?xml version="1.0" encoding="utf-8"?>
<!-- Generator: Adobe Illustrator 23.0.2, SVG Export Plug-In . SVG Version: 6.00 Build 0)  -->
<svg version="1.1" id="图层_1" xmlns="http://www.w3.org/2000/svg" xmlns:xlink="http://www.w3.org/1999/xlink" x="0px" y="0px"
	 viewBox="0 0 1920.6 1079.8" style="enable-background:new 0 0 1920.6 1079.8;" xml:space="preserve">
<style type="text/css">
	.st0{clip-path:url(#SVGID_2_);}
	.st1{fill:#5CE2C1;stroke:#5CE2C1;}
	.st2{fill:#49DBC0;stroke:#49DBC0;}
	.st3{fill:#32D3BF;stroke:#32D3BF;}
	.st4{fill:#0ACCBF;stroke:#0ACCBF;}
	.st5{fill:#00C4BD;stroke:#00C4BD;}
	.st6{fill:#00BDBC;stroke:#00BDBC;}
	.st7{fill:#00B5BB;stroke:#00B5BB;}
	.st8{fill:#00AEB9;stroke:#00AEB9;}
	.st9{fill:#00A6B8;stroke:#00A6B8;}
	.st10{fill:#009FB6;stroke:#009FB6;}
	.st11{fill:#0097B3;stroke:#0097B3;}
	.st12{fill:#008FB1;stroke:#008FB1;}
	.st13{fill:#0088AE;stroke:#0088AE;}
	.st14{fill:#0080AB;stroke:#0080AB;}
	.st15{fill:#0079A7;stroke:#0079A7;}
	.st16{fill:#0071A3;stroke:#0071A3;}
	.st17{fill:#00699E;stroke:#00699E;}
	.st18{fill:#00629A;stroke:#00629A;}
	.st19{fill:#005A94;stroke:#005A94;}
	.st20{fill:#00538F;stroke:#00538F;}
	.st21{fill:#004C89;stroke:#004C89;}
	.st22{fill:#004482;stroke:#004482;}
	.st23{fill:#003D7C;stroke:#003D7C;}
	.st24{fill:#003675;stroke:#003675;}
	.st25{fill:#002E6D;stroke:#002E6D;}
	.st26{fill:#002765;stroke:#002765;}
	.st27{fill:#00205D;stroke:#00205D;}
	.st28{fill:#001855;stroke:#001855;}
	.st29{fill:#00114D;stroke:#00114D;}
	.st30{fill:#040744;stroke:#040744;}
</style>
<title>Background</title>
<g>
	<defs>
		<rect id="SVGID_1_" x="-0.4" y="-0.2" width="1920" height="1080"/>
	</defs>
	<clipPath id="SVGID_2_">
		<use xlink:href="#SVGID_1_"  style="overflow:visible;"/>
	</clipPath>
	<g class="st0">
		<path class="st1" d="M-645.6,1235.8V-32.3c125.5,0,125.5-25.2,251.1-25.2S-268.9-7.1-143.4-7.1s125.6-50.4,251.1-50.4
			S233.3-7.1,358.8-7.1s125.5-50.4,251.1-50.4S735.5-7.1,861-7.1s125.5-50.4,251.1-50.4s125.6,50.4,251.1,50.4
			s125.6-50.4,251.1-50.4s125.6,50.4,251.1,50.4l54.6-25.2v1268.1H-645.6z"/>
		<path class="st2" d="M-645.6,1235.8l9.4-1234.5c125.6,0,125.6-25.2,251.1-25.2s125.6,50.4,251.1,50.4S-8.4-23.9,117.2-23.9
			s125.6,50.4,251.1,50.4s125.6-50.4,251.1-50.4s125.5,50.4,251.1,50.4S996-23.9,1121.6-23.9s125.6,50.4,251.1,50.4
			s125.6-50.4,251.1-50.4s125.6,50.4,251.1,50.4l45.2-25.2v1234.5H-645.6z"/>
		<path class="st3" d="M-645.6,1235.8L-626.7,36c125.5,0,125.5-25.2,251.1-25.2S-250,61.2-124.4,61.2S1.1,10.8,126.6,10.8
			s125.6,50.4,251.1,50.4s125.5-50.4,251.1-50.4S754.4,61.2,880,61.2s125.5-50.4,251.1-50.4s125.5,50.4,251.1,50.4
			s125.6-50.4,251.1-50.4s125.6,50.4,251.1,50.4l35.7-25.2v1199.8H-645.6z"/>
		<path class="st4" d="M-645.6,1235.8l28.4-1166.2c125.5,0,125.5-25.2,251.1-25.2S-240.6,94.8-115,94.8S10.6,44.4,136.1,44.4
			s125.6,50.4,251.1,50.4s125.6-50.4,251.1-50.4s125.6,50.4,251.1,50.4s125.5-50.4,251.1-50.4s125.5,50.4,251.1,50.4
			s125.6-50.4,251.1-50.4s125.6,50.4,251.1,50.4l26.3-25.2v1166.2H-645.6z"/>
		<path class="st5" d="M-645.6,1235.8l37.8-1131.5c125.5,0,125.5-25.2,251.1-25.2s125.6,50.4,251.1,50.4S20,79.1,145.6,79.1
			s125.5,50.4,251.1,50.4s125.5-50.4,251.1-50.4s125.5,50.4,251.1,50.4s125.6-50.4,251.1-50.4s125.6,50.4,251.1,50.4
			s125.5-50.4,251.1-50.4l267.9,25.2v1131.5H-645.6z"/>
		<path class="st6" d="M-645.6,1235.8L-598.3,139c125.5,0,125.5-25.2,251.1-25.2s125.6,50.4,251.1,50.4S29.5,113.8,155,113.8
			s125.6,50.4,251.1,50.4s125.6-50.4,251.1-50.4s125.5,50.4,251.1,50.4s125.6-50.4,251.1-50.4s125.6,50.4,251.1,50.4
			s125.6-50.4,251.1-50.4l258.5,25.2v1096.9H-645.6z"/>
		<path class="st7" d="M-645.6,1235.8l56.7-1063.2c125.5,0,125.5-25.2,251.1-25.2s125.6,50.5,251.1,50.5s125.6-50.4,251.1-50.4
			s125.5,50.4,251.1,50.4s125.6-50.4,251.1-50.4s125.5,50.4,251.1,50.4s125.5-50.4,251.1-50.4s125.5,50.4,251.1,50.4
			s125.6-50.4,251.1-50.4l249,25.2v1063.2H-645.6z"/>
		<path class="st8" d="M-645.6,1235.8l66.2-1028.6c125.5,0,125.5-25.2,251.1-25.2s125.6,50.4,251.1,50.4s125.6-50.4,251.1-50.4
			s125.5,50.4,251.1,50.4s125.6-50.4,251.1-50.4s125.5,50.4,251.1,50.4s125.5-50.4,251.1-50.4s125.6,50.4,251.1,50.4
			s125.6-50.4,251.1-50.4l239.6,25.2v1028.6H-645.6z"/>
		<path class="st9" d="M-645.6,1235.8l75.6-995c125.5,0,125.5-25.2,251.1-25.2s125.6,50.4,251.1,50.4s125.6-50.4,251.1-50.4
			s125.6,50.4,251.1,50.4s125.6-50.4,251.1-50.4s125.5,50.4,251.1,50.4s125.6-50.4,251.1-50.4s125.6,50.4,251.1,50.4
			s125.6-50.4,251.1-50.4l230.1,25.2v995H-645.6z"/>
		<path class="st10" d="M-645.6,1235.8l85.1-960.3c125.5,0,125.5-25.2,251.1-25.2s125.6,50.4,251.1,50.4s125.5-50.4,251.1-50.4
			s125.5,50.4,251.1,50.4s125.6-50.4,251.1-50.4s125.5,50.4,251.1,50.4s125.5-50.4,251.1-50.4s125.6,50.4,251.1,50.4
			s125.6-50.4,251.1-50.4l220.6,25.2v960.3H-645.6z"/>
		<path class="st11" d="M-645.6,1235.8l94.6-925.6c125.5,0,125.5-25.2,251.1-25.2s125.5,50.4,251.1,50.4S76.7,285,202.3,285
			s125.6,50.4,251.1,50.4S578.9,285,704.5,285s125.5,50.4,251.1,50.4s125.6-50.4,251.1-50.4s125.6,50.4,251.1,50.4
			s125.6-50.4,251.1-50.4l211.2,25.2v925.6H-645.6z"/>
		<path class="st12" d="M-645.6,1235.8l104-892c125.5,0,125.5-25.2,251.1-25.2s125.6,50.4,251.1,50.4s125.6-50.4,251.1-50.4
			s125.5,50.4,251.1,50.4s125.6-50.4,251.1-50.4s125.5,50.4,251.1,50.4s125.6-50.4,251.1-50.4s125.6,50.4,251.1,50.4
			s125.6-50.4,251.1-50.4l201.7,25.2v892H-645.6z"/>
		<path class="st13" d="M-645.6,1235.8l113.5-857.3c125.5,0,125.5-25.2,251.1-25.2s125.6,50.4,251.1,50.4s125.6-50.4,251.1-50.4
			s125.5,50.4,251.1,50.4s125.6-50.4,251.1-50.4s125.5,50.4,251.1,50.4s125.6-50.4,251.1-50.4s125.6,50.4,251.1,50.4
			s125.6-50.4,251.1-50.4l192.3,25.2v857.3H-645.6z"/>
		<path class="st14" d="M-645.6,1235.8l122.9-822.7c125.5,0,125.5-25.2,251.1-25.2s125.6,50.4,251.1,50.4S105.1,388,230.7,388
			s125.6,50.4,251.1,50.4S607.3,388,732.9,388s125.5,50.4,251.1,50.4s125.6-50.4,251.1-50.4s125.6,50.4,251.1,50.4
			s125.6-50.4,251.1-50.4l182.8,25.2v822.7H-645.6z"/>
		<path class="st15" d="M-645.6,1235.8l132.4-789c125.5,0,125.5-25.2,251.1-25.2s125.6,50.4,251.1,50.4s125.6-50.5,251.1-50.5
			S365.7,472,491.2,472s125.6-50.4,251.1-50.4S867.9,472,993.4,472s125.6-50.4,251.1-50.4s125.6,50.4,251.1,50.4
			s125.6-50.4,251.1-50.4l173.4,25.2v789H-645.6z"/>
		<path class="st16" d="M-645.6,1235.8l141.8-754.4c125.6,0,125.6-25.2,251.1-25.2s125.5,50.4,251.1,50.4s125.5-50.4,251.1-50.4
			s125.5,50.4,251.1,50.4s125.6-50.4,251.1-50.4s125.5,50.4,251.1,50.4s125.6-50.4,251.1-50.4s125.6,50.4,251.1,50.4
			s125.6-50.4,251.1-50.4l163.9,25.2v754.4H-645.6z"/>
		<path class="st17" d="M-645.6,1235.8l151.3-720.7c125.5,0,125.5-25.2,251.1-25.2s125.6,50.4,251.1,50.4s125.6-50.4,251.1-50.4
			s125.6,50.4,251.1,50.4s125.6-50.4,251.1-50.4s125.6,50.4,251.1,50.4s125.6-50.4,251.1-50.4s125.6,50.4,251.1,50.4
			s125.6-50.4,251.1-50.4l154.4,25.2v720.7H-645.6z"/>
		<path class="st18" d="M-645.6,1235.8l160.7-686.1c125.5,0,125.5-25.2,251.1-25.2S-108.2,575,17.4,575s125.6-50.4,251.1-50.4
			S394,575,519.6,575s125.5-50.4,251.1-50.4S896.2,575,1021.8,575s125.6-50.4,251.1-50.4S1398.4,575,1524,575s125.6-50.4,251.1-50.4
			l145,25.2v686.1H-645.6z"/>
		<path class="st19" d="M-645.6,1235.8l170.2-651.4c125.5,0,125.5-25.2,251.1-25.2s125.5,50.4,251.1,50.4s125.6-50.4,251.1-50.4
			s125.5,50.4,251.1,50.4s125.6-50.4,251.1-50.4s125.5,50.4,251.1,50.4s125.6-50.4,251.1-50.4s125.6,50.4,251.1,50.4
			s125.6-50.4,251.1-50.4l135.5,25.2v651.4H-645.6z"/>
		<path class="st20" d="M-645.6,1235.8l179.7-617.8c125.5,0,125.5-25.2,251.1-25.2s125.5,50.4,251.1,50.4s125.6-50.4,251.1-50.4
			s125.5,50.4,251.1,50.4s125.5-50.4,251.1-50.4s125.5,50.4,251.1,50.4s125.6-50.4,251.1-50.4s125.6,50.4,251.1,50.4
			s125.6-50.4,251.1-50.4l126.1,25.2v617.8H-645.6z"/>
		<path class="st21" d="M-645.6,1235.8l189.2-583.1c125.6,0,125.6-25.2,251.1-25.2S-79.8,678,45.8,678s125.6-50.4,251.1-50.4
			S422.4,678,548,678s125.5-50.4,251.1-50.4S924.7,678,1050.2,678s125.6-50.4,251.1-50.4s125.6,50.4,251.1,50.4
			s125.6-50.4,251.1-50.4l116.6,25.2v583.1H-645.6z"/>
		<path class="st22" d="M-645.6,1235.8L-447,687.4c125.5,0,125.5-25.2,251.1-25.2s125.5,50.4,251.1,50.4s125.6-50.4,251.1-50.4
			s125.5,50.4,251.1,50.4s125.5-50.4,251.1-50.4s125.5,50.4,251.1,50.4s125.6-50.4,251.1-50.4s125.6,50.4,251.1,50.4
			s125.6-50.4,251.1-50.4l107.2,25.2v548.4H-645.6z"/>
		<path class="st23" d="M-645.6,1235.8l208-514.8c125.6,0,125.6-25.2,251.2-25.2s125.5,50.4,251.1,50.4s125.6-50.4,251.1-50.4
			s125.6,50.4,251.1,50.4s125.5-50.4,251.1-50.4s125.5,50.4,251.1,50.4s125.5-50.4,251.1-50.4s125.6,50.4,251.1,50.4
			s125.6-50.4,251.1-50.4l97.7,25.2v514.8H-645.6z"/>
		<path class="st24" d="M-645.6,1235.8l217.5-480.1c125.5,0,125.5-25.2,251.1-25.2s125.6,50.4,251.1,50.4s125.6-50.4,251.1-50.4
			s125.5,50.4,251.1,50.4s125.5-50.4,251.1-50.4s125.5,50.4,251.1,50.4s125.6-50.4,251.1-50.4s125.6,50.4,251.1,50.4
			s125.6-50.4,251.1-50.4l88.2,25.2v480.1H-645.6z"/>
		<path class="st25" d="M-645.6,1235.8l226.9-446.5c125.5,0,125.5-25.2,251.1-25.2S-42,814.5,83.6,814.5s125.6-50.4,251.1-50.4
			s125.5,50.4,251.1,50.4s125.5-50.4,251.1-50.4s125.5,50.4,251.1,50.4s125.6-50.4,251.1-50.4s125.6,50.4,251.1,50.4
			s125.6-50.4,251.1-50.4l78.8,25.2v446.5H-645.6z"/>
		<path class="st26" d="M-645.6,1235.8L-409.2,824c125.5,0,125.5-25.2,251.1-25.2S-32.5,849.2,93,849.2s125.6-50.4,251.1-50.4
			s125.6,50.4,251.1,50.4s125.6-50.4,251.1-50.4s125.5,50.4,251.1,50.4s125.6-50.4,251.1-50.4s125.6,50.4,251.1,50.4
			s125.6-50.4,251.1-50.4l69.3,25.2v411.9H-645.6z"/>
		<path class="st27" d="M-645.6,1235.8l245.8-377.2c125.6,0,125.6-25.2,251.1-25.2s125.5,50.4,251.1,50.4s125.6-50.4,251.1-50.4
			s125.5,50.4,251.1,50.4s125.5-50.4,251.1-50.4s125.6,50.4,251.1,50.4s125.6-50.4,251.1-50.4s125.6,50.4,251.1,50.4
			s125.6-50.4,251.1-50.4l59.9,25.2v377.2H-645.6z"/>
		<path class="st28" d="M-645.6,1235.8l255.3-343.6c125.6,0,125.6-25.2,251.1-25.2s125.5,50.4,251.1,50.4s125.6-50.4,251.1-50.4
			s125.5,50.4,251.1,50.4s125.5-50.4,251.1-50.4s125.5,50.4,251.1,50.4s125.6-50.4,251.1-50.4s125.6,50.4,251.1,50.4
			s125.6-50.4,251.1-50.4l50.4,25.2v343.6H-645.6z"/>
		<path class="st29" d="M-645.6,1235.8L-380.8,927c125.6,0,125.6-25.2,251.1-25.2s125.5,50.4,251.1,50.4s125.6-50.4,251.1-50.4
			s125.5,50.4,251.1,50.4s125.5-50.4,251.1-50.4s125.6,50.4,251.1,50.4s125.6-50.4,251.1-50.4s125.6,50.4,251.1,50.4
			s125.6-50.4,251.1-50.4l41,25.2v308.9H-645.6z"/>
		<path class="st30" d="M-645.6,1235.8l274.2-274.2c125.6,0,125.6-25.2,251.1-25.2s125.5,50.4,251.1,50.4s125.5-50.4,251.1-50.4
			s125.6,50.4,251.1,50.4s125.5-50.4,251.1-50.4s125.5,50.4,251.1,50.4s125.6-50.4,251.1-50.4s125.5,50.4,251.1,50.4
			s125.6-50.4,251.1-50.4l31.5,25.2v274.2H-645.6z"/>
	</g>
</g>
</svg>
