<?xml version="1.0" encoding="utf-8"?>
<!-- Generator: Adobe Illustrator 23.0.2, SVG Export Plug-In . SVG Version: 6.00 Build 0)  -->
<svg version="1.1" id="图层_1" xmlns="http://www.w3.org/2000/svg" xmlns:xlink="http://www.w3.org/1999/xlink" x="0px" y="0px"
	 viewBox="0 0 200 200" style="enable-background:new 0 0 200 200;" xml:space="preserve">
<path d="M100,28.8L100,28.8c-39.3,0-71.2,31.9-71.2,71.2c0,39.3,31.9,71.2,71.2,71.2c39.3,0,71.2-31.9,71.2-71.2
	C171.2,60.7,139.3,28.8,100,28.8z M133.6,92.9l-30.2,30.2c-0.9,0.9-2.1,1.4-3.4,1.4l0,0h0c0,0,0,0,0,0c-1.2,0-2.4-0.5-3.4-1.4
	L66.4,92.9c-1.9-1.9-1.9-4.9,0-6.7c1.9-1.9,4.9-1.9,6.7,0l26.9,26.9l26.9-26.9c1.9-1.9,4.9-1.9,6.7,0C135.5,88,135.5,91,133.6,92.9z
	"/>
</svg>
