<svg id="图层_1" data-name="图层 1" xmlns="http://www.w3.org/2000/svg" viewBox="0 0 32 32"><defs><style>.cls-1{fill:#fff;}</style></defs><title>logo_weibo</title><path class="cls-1" d="M654.5,494a16,16,0,1,0,16,16A16,16,0,0,0,654.5,494Zm0,31a15,15,0,1,1,15-15A15,15,0,0,1,654.5,525Z" transform="translate(-638.5 -494)"/><path class="cls-1" d="M657.81,509.84c0-.14,1.35-1.4,0-2.18s-3.82.41-3.74.28c1.06-1.83-.46-2.4-1.23-2.4-1.85,0-6.67,4-6.67,6.6s3.22,4.64,7.19,4.64,7.16-2.08,7.16-4.64C660.52,510,657.81,510,657.81,509.84Zm-4.26,5.52c-2.54.35-4.78-.69-5-2.34s1.63-3.28,4.17-3.63,4.78.69,5,2.34S656.09,515,653.55,515.36Z" transform="translate(-638.5 -494)"/><path class="cls-1" d="M659.48,509h0a.57.57,0,0,0,.55-.46,2.13,2.13,0,0,0-.5-2,2.08,2.08,0,0,0-1.81-.49.54.54,0,0,0-.45.46.45.45,0,0,0,.46.38,1.47,1.47,0,0,1,1.24.41,1.3,1.3,0,0,1,.13,1.26A.33.33,0,0,0,659.48,509Z" transform="translate(-638.5 -494)"/><path class="cls-1" d="M652.2,510.36a2.36,2.36,0,1,0,3.17,1.74A2.57,2.57,0,0,0,652.2,510.36Zm-.14,3.3a.83.83,0,0,1-1.13-.24c-.17-.34.08-.8.54-1a.85.85,0,0,1,1.14.24A.83.83,0,0,1,652.06,513.66Zm1.3-1.12a.43.43,0,0,1-.46,0,.46.46,0,0,1-.23-.4.46.46,0,0,1,.69-.4.45.45,0,0,1,.23.4A.44.44,0,0,1,653.36,512.54Z" transform="translate(-638.5 -494)"/><path class="cls-1" d="M657.53,503.79a.71.71,0,0,0-.69.62.69.69,0,0,0,.69.61,3.38,3.38,0,0,1,2.91,1.09,3.67,3.67,0,0,1,.54,2.79.58.58,0,0,0,.52.68.79.79,0,0,0,.69-.68,4.58,4.58,0,0,0-1.06-3.87A5,5,0,0,0,657.53,503.79Z" transform="translate(-638.5 -494)"/></svg>