<svg id="图层_1" data-name="图层 1" xmlns="http://www.w3.org/2000/svg" viewBox="0 0 20 20"><defs><style>.cls-1{fill:#251e1c;}.cls-2{fill:#fff;}</style></defs><title>Logo_nano</title><rect class="cls-1" width="20" height="20" rx="3.5"/><circle class="cls-2" cx="12.39" cy="10.34" r="0.25"/><path class="cls-2" d="M542.13,540.69a.36.36,0,1,1,.35-.35A.36.36,0,0,1,542.13,540.69Zm0-.5a.15.15,0,0,0-.15.15.15.15,0,0,0,.15.14.14.14,0,0,0,.14-.14A.15.15,0,0,0,542.13,540.19Z" transform="translate(-529.73 -530)"/><path class="cls-2" d="M535.56,535.74v2.34l.05,0,.58-.86a3,3,0,0,1,.74-.72,4.25,4.25,0,0,1,1.76-.82,4.74,4.74,0,0,1,1.91,0,4.89,4.89,0,0,1,1.76.72,4,4,0,0,1,1.32,1.43,6.66,6.66,0,0,1,.45,1,2.88,2.88,0,0,1,.19,1v4.72h-.38v-4.53a3.11,3.11,0,0,0-.16-1,5.31,5.31,0,0,0-.4-.9,4.19,4.19,0,0,0-1-1.16,4.23,4.23,0,0,0-1.23-.71,4.08,4.08,0,0,0-1.38-.27,4.21,4.21,0,0,0-1.37.2,4,4,0,0,0-1.26.66,3.84,3.84,0,0,0-1,1.13,5.34,5.34,0,0,0-.42.9,2.69,2.69,0,0,0-.19,1v4.67h-.41v-8.73Z" transform="translate(-529.73 -530)"/><path class="cls-2" d="M544.4,544.55h-.54v-4.61a3,3,0,0,0-.16-.94,5.08,5.08,0,0,0-.39-.88,4.38,4.38,0,0,0-.93-1.14,4.2,4.2,0,0,0-1.21-.7,4.15,4.15,0,0,0-1.35-.26,4.41,4.41,0,0,0-1.35.19,4.16,4.16,0,0,0-1.23.65,3.87,3.87,0,0,0-1,1.12,6,6,0,0,0-.42.88,2.69,2.69,0,0,0-.18.94v4.75h-.57v-8.88h.57v2.2c.17-.26.33-.5.49-.72a3.14,3.14,0,0,1,.75-.75,4.52,4.52,0,0,1,1.79-.83,4.83,4.83,0,0,1,3.73.68,4.15,4.15,0,0,1,1.35,1.47,5.41,5.41,0,0,1,.45,1,3.06,3.06,0,0,1,.2,1.06Zm-.38-.16h.22v-4.64a3,3,0,0,0-.18-1,6.41,6.41,0,0,0-.45-1,4,4,0,0,0-1.29-1.4,4.55,4.55,0,0,0-1.74-.71,4.77,4.77,0,0,0-1.88,0,4.36,4.36,0,0,0-1.73.81,2.81,2.81,0,0,0-.71.71l-.59.85,0,0-.17.11v-2.41h-.25v8.57h.25V539.8a3.09,3.09,0,0,1,.19-1,6.4,6.4,0,0,1,.43-.91,4.34,4.34,0,0,1,2.32-1.83,4.5,4.5,0,0,1,1.41-.2,4.27,4.27,0,0,1,2.65,1,4.71,4.71,0,0,1,1,1.18,5.2,5.2,0,0,1,.4.92,3.21,3.21,0,0,1,.17,1Z" transform="translate(-529.73 -530)"/></svg>