<svg id="图层_1" data-name="图层 1" xmlns="http://www.w3.org/2000/svg" viewBox="0 0 256 256"><defs><style>.cls-1{fill:#fff;}</style></defs><title>Logo_openingsource</title><path class="cls-1" d="M110.31,86.07C94.94,90.29,79.87,94.51,64.8,98.73c-1.51.61-2.11,1.21-2.11,2.41V159c0,1.21.3,1.81,2.11,2.11,15.07,2.41,30.44,4.83,45.51,7.24,2.11.3,2.41-.31,2.41-1.81V127.06c0-13.26,0-26.22.3-39.48C113,85.47,113,85.47,110.31,86.07Zm-43.4,34.67c-.91-.61-2.71-.91-1.81-2.42a43,43,0,0,1,3.32-4.52c3-4.52,6-8.74,9-13.26.3-.3.6-.9,1.2-.9,1.51,0,2.72,2.11,2.11,3-3.92,5.73-8.13,11.76-12,17.48C68.42,120.74,68.11,121.64,66.91,120.74Zm2.11,12c6.33-9,12.66-18.38,19-27.43.3-.6.6-1.5,1.81-.9.9.6,2.71.9,1.8,2.71-1.5,2.11-2.71,3.92-4.22,6-4.82,7.23-9.94,14.47-14.76,21.4-.61.6-.91,1.2-1.51,1.2A2.31,2.31,0,0,1,69,132.79Zm5.12,18.09c-1.5,0-3-1.81-2.41-3,8.74-13,17.48-25.92,26.22-38.58.3-.6.61-1.5,1.81-.9.91.6,3,.9,1.81,2.41-3.32,4.82-6.63,9.95-9.95,14.77-5.42,7.83-10.55,15.67-16,23.51C75.05,150,74.75,150.57,74.14,150.88Zm10.55,4.21c-1.51,0-3-2.11-2.11-3,6.33-9.34,12.66-18.38,19-27.73.3-.6.6-1.5,1.51-.6.9.6,3,.9,1.81,2.71-1.81,2.71-3.92,5.43-5.73,8.44-4.52,6.33-8.74,13-13.26,19.29C85.6,154.49,85.6,155.09,84.69,155.09Zm23.51-14.16c-3.92,5.73-7.84,11.45-12.06,17.18-.3.6-.6,1.81-1.5.9-.91-.6-3-.9-1.81-2.41l12.66-18.08c.3-.3.6-.91,1.2-.6a3.76,3.76,0,0,1,2.11,1.8A1.6,1.6,0,0,0,108.2,140.93Z"/><path class="cls-1" d="M192.89,98.43c-23.81-3.62-47.62-7.23-71.43-11.15-2.41-.3-2.71.3-2.71,2.11v76c0,1.51.6,2.11,2.41,1.81,9-1.2,18.39-2.11,27.73-3,14.47-1.51,29.23-3,44-4.52,2.41-.31,3-.91,3-2.72V101.45C195.91,99.34,195,98.73,192.89,98.43Zm-44.3,36.77c-5.73,2.41-11.46,4.52-17.18,6.93-1.21.61-1.51.31-1.51-.9,0-3.62,0-3.62,3.92-5.12,2.71-.91,5.73-2.11,8.44-3l.6-.3c-3.31-1.2-6.93-2.11-10.25-3.31-1.5-.31-2.41-4.52-1.2-5.13.6-.3,1.2,0,1.51,0l15.37,5.43c.9.3,1.81.9,1.5,1.81C149.49,132.79,150.4,134.3,148.59,135.2Zm19.29,16.58c-5.13,0-10.25.3-15.68.6-.9,0-2.1,0-1.8-1.2s-.3-2.41,1.8-2.41c4.22-.31,8.14-.61,12.36-.61h3c1.2,0,2.71-.6,2.71,1.21C170.29,150.88,170.29,151.78,167.88,151.78Z"/><path class="cls-1" d="M128,0A128,128,0,1,0,256,128,128,128,0,0,0,128,0Zm73.94,129.48v33.45c0,1.51-.31,2.11-2.42,2.41-18.38,1.81-36.77,3.62-55.45,5.73-9.65.9-19.29,2.11-28.94,3-3,.3-5.72-.6-8.44-.9-16-2.41-32.25-5.13-48.22-7.54-1.51-.3-1.51-.9-1.51-1.8V97.53c0-1.81.61-2.41,2.72-3,16.87-4.82,34.05-9.34,50.93-14.16,1.81-.6,3.62-.3,5.73,0,28,4.52,55.76,9,83.79,13.26,1.81.3,2.11.9,2.11,2.11C201.94,107.17,201.94,118.32,201.94,129.48Z"/></svg>