<svg id="图层_1" data-name="图层 1" xmlns="http://www.w3.org/2000/svg" viewBox="0 0 32 32"><defs><style>.cls-1{fill:#fff;}</style></defs><title>logo_flickr</title><path class="cls-1" d="M540,524a16,16,0,1,0,16,16A16,16,0,0,0,540,524Zm0,31a15,15,0,1,1,15-15A15,15,0,0,1,540,555Z" transform="translate(-524 -524)"/><path class="cls-1" d="M545.14,537.71a2.29,2.29,0,1,0,2.29,2.29,2.29,2.29,0,0,0-2.29-2.29Zm0-1.71a4,4,0,1,1-4,4,4,4,0,0,1,4-4Zm-14.28,4a4,4,0,1,1,4,4,4,4,0,0,1-4-4Zm0,0" transform="translate(-524 -524)"/></svg>