<svg id="图层_1" data-name="图层 1" xmlns="http://www.w3.org/2000/svg" viewBox="0 0 256 256"><defs><style>.cls-1,.cls-2{fill:#fff;}.cls-1{stroke:#fff;stroke-miterlimit:10;stroke-width:0.4px;}</style></defs><title>Logo_Hexang</title><path class="cls-1" d="M121.48,130.63A41.57,41.57,0,0,0,138.13,125a59.44,59.44,0,0,0,14.53-12,73.35,73.35,0,0,1,12.25-10.74c2.68-1.92,5.27-4,8.36-5.23-.77-.47-1.34.06-1.92.4a85.73,85.73,0,0,0-18.95,15.23,70.26,70.26,0,0,1-8.12,7.6c-9.54,7.42-20.16,11.32-32.43,9.87a45,45,0,0,1-21.66-8.46c-1.87-1.38-3.77-2.71-5.73-4-.66-.43-1.31-1-2.22-.73a32.24,32.24,0,0,1,6,3.81C98.08,128.39,109,132,121.48,130.63Z"/><path class="cls-1" d="M140.31,87.34c5.94-1.47,11.89-2.92,18.07-2.75a54.17,54.17,0,0,1,8.22,1,6.11,6.11,0,0,0-2.58-1,40.63,40.63,0,0,0-13.34,0c-10.11,1.67-19.84,4.82-29.6,7.81-8.57,2.62-17.21,4.84-26.26,4.9a3.14,3.14,0,0,0-1.81.5,70,70,0,0,0,19-2.35C121.54,93.12,130.78,89.71,140.31,87.34Z"/><path class="cls-2" d="M128,0A128,128,0,1,0,256,128,128,128,0,0,0,128,0Zm47.92,119.76a76.68,76.68,0,0,1-4.06,18.31,111.32,111.32,0,0,1-12.65,26.08c-3.8,5.7-9,10-14.8,13.62a40.51,40.51,0,0,1-13.87,5.62,32.4,32.4,0,0,1-18.65-1.84c-7.84-3.18-14.06-8.47-19.58-14.77a54.38,54.38,0,0,1-8.49-12.37,44.91,44.91,0,0,1-4.46-18.85A54.41,54.41,0,0,1,82.24,117h0a71.29,71.29,0,0,1,9.51-18A7.41,7.41,0,0,1,93,97.83a70.08,70.08,0,0,1,25.65-21A46.7,46.7,0,0,1,137,72h4.19a33.45,33.45,0,0,1,20.33,8.24,42.72,42.72,0,0,1,5.13,5.38,16.47,16.47,0,0,1,3.71,5.09,28.76,28.76,0,0,1,3,6.39,34.34,34.34,0,0,1,2.35,9A55.61,55.61,0,0,1,175.92,119.76Z"/></svg>