<svg id="图层_1" data-name="图层 1" xmlns="http://www.w3.org/2000/svg" viewBox="0 0 256 256"><defs><style>.cls-1{fill:#fff;}</style></defs><title>Logo_WeChat</title><path class="cls-1" d="M98,99.93c-3.45,0-6.09,2.23-6.13,5.11s2.63,5.3,6.24,5.29a5,5,0,0,0,5.35-5.09A5.08,5.08,0,0,0,98,99.93Z"/><path class="cls-1" d="M144.62,132.67a4,4,0,0,0-4.34,3.89,4.19,4.19,0,0,0,4.39,4.19c2.51,0,4.73-1.86,4.8-3.94C149.55,134.57,147.33,132.68,144.62,132.67Z"/><path class="cls-1" d="M129.82,110.33c3.18-.08,5-2.09,5-5.39s-2.06-5.06-5.35-5-6.07,2.35-6,5.26S126.17,110.41,129.82,110.33Z"/><path class="cls-1" d="M169.4,132.67c-2.44,0-4.6,1.93-4.55,4.11a4.58,4.58,0,0,0,4.43,4c2.52,0,4.72-1.72,4.81-3.86C174.2,134.51,172.19,132.69,169.4,132.67Z"/><path class="cls-1" d="M128,0A128,128,0,1,0,256,128,128,128,0,0,0,128,0ZM104.92,156.44c-6.14-1.88-11.21-.23-16.31,2.8a24.47,24.47,0,0,1-7.46,2.92c1-3.15,2-6.35,3.17-9.42,1-2.49.61-4-1.66-5.75-7-5.29-12.35-12-14.22-20.69C65.5,112.66,69.77,101.15,80,91.94c19.84-17.82,54-15.38,71,5.18,2.84,3.44,4.5,7.86,6.61,11.88a13.82,13.82,0,0,1,.73,3.17c-13-.71-24.08,2.5-32.81,11.66s-11.49,20.33-8.22,33.59C112.82,157.12,108.63,157.57,104.92,156.44Zm82.48,9c-1.87,2.17-4.25,3.91-6.13,6.07a4.71,4.71,0,0,0-1,3.49c.55,2.87,1.53,5.67,2.34,8.5L182,184c-3-1.6-6-3.07-8.85-4.84a7.49,7.49,0,0,0-6.42-.84,40.57,40.57,0,0,1-32.66-4.75c-21.12-12.78-21.3-40-.46-53.28,16.14-10.26,38.28-8.15,51.87,4.93C197.7,137,198.49,152.65,187.4,165.47Z"/></svg>