<svg id="图层_1" data-name="图层 1" xmlns="http://www.w3.org/2000/svg" viewBox="0 0 32 32"><defs><style>.cls-1{fill:#fff;}</style></defs><title>logo_facebook</title><path class="cls-1" d="M540,524a16,16,0,1,0,16,16A16,16,0,0,0,540,524Zm0,31a15,15,0,1,1,15-15A15,15,0,0,1,540,555Z" transform="translate(-524 -524)"/><path class="cls-1" d="M536.19,537.29h1.65v-1.61a4.27,4.27,0,0,1,.54-2.48A3,3,0,0,1,541,532a10.31,10.31,0,0,1,3,.3l-.41,2.45a5.57,5.57,0,0,0-1.33-.2c-.65,0-1.22.23-1.22.87v1.87h2.63l-.18,2.39H541V548h-3.11v-8.32h-1.65Zm0,0" transform="translate(-524 -524)"/></svg>