<svg id="图层_1" data-name="图层 1" xmlns="http://www.w3.org/2000/svg" viewBox="0 0 256 256"><defs><style>.cls-1{fill:#fff;}</style></defs><title>Logo_Twitter</title><path class="cls-1" d="M128,0A128,128,0,1,0,256,128,128,128,0,0,0,128,0ZM182,108.09c.05,1.12.07,2.26.07,3.4,0,34.77-26.45,74.84-74.85,74.84a74.48,74.48,0,0,1-40.32-11.81,52.05,52.05,0,0,0,6.28.36,52.78,52.78,0,0,0,32.67-11.26,26.29,26.29,0,0,1-24.57-18.26,26.41,26.41,0,0,0,4.94.47,25.61,25.61,0,0,0,6.94-.93A26.31,26.31,0,0,1,72,119.11v-.33a26.29,26.29,0,0,0,11.92,3.29,26.35,26.35,0,0,1-8.14-35.13A74.66,74.66,0,0,0,130,114.43a26.32,26.32,0,0,1,44.82-24,52.8,52.8,0,0,0,16.71-6.38A26.38,26.38,0,0,1,180,98.61a52.77,52.77,0,0,0,15.1-4.14A53.43,53.43,0,0,1,182,108.09Z"/></svg>