<svg id="图层_1" data-name="图层 1" xmlns="http://www.w3.org/2000/svg" viewBox="0 0 256.09 256.09"><defs><style>.cls-1{fill:#fff;}.cls-2{fill:#251e1c;}</style></defs><title>Logo_nano_w</title><rect class="cls-1" width="256.09" height="256.09" rx="32.04"/><circle class="cls-2" cx="158.69" cy="132.35" r="3.2"/><path class="cls-2" d="M158.34,136.9a4.55,4.55,0,1,1,4.55-4.55A4.56,4.56,0,0,1,158.34,136.9Zm0-6.41a1.86,1.86,0,1,0,1.86,1.86A1.85,1.85,0,0,0,158.34,130.49Z" transform="translate(0.35 0)"/><path class="cls-2" d="M74.24,73.55v30l.63-.43q4-5.89,7.49-11a37.8,37.8,0,0,1,9.38-9.28A56.48,56.48,0,0,1,114.3,72.29a60.28,60.28,0,0,1,47,8.64,51.71,51.71,0,0,1,16.87,18.35,73.6,73.6,0,0,1,5.8,12.33,38.21,38.21,0,0,1,2.43,13.18v60.52h-4.85v-58A39.74,39.74,0,0,0,179.46,115a60.19,60.19,0,0,0-5.06-11.49,54.43,54.43,0,0,0-12.23-14.87,52.92,52.92,0,0,0-15.71-9.17,54,54,0,0,0-35.21-.85,54.52,54.52,0,0,0-16.14,8.44A52.15,52.15,0,0,0,82,101.6a75.89,75.89,0,0,0-5.38,11.49,35.07,35.07,0,0,0-2.42,12.33v59.89H69V73.55Z" transform="translate(0.35 0)"/><path class="cls-2" d="M187.43,186.32h-6.87v-59a38.69,38.69,0,0,0-2.06-12,58.76,58.76,0,0,0-5-11.3,53.39,53.39,0,0,0-12-14.59,52.2,52.2,0,0,0-15.41-9,53.06,53.06,0,0,0-34.56-.83,54,54,0,0,0-15.83,8.29A51.48,51.48,0,0,0,82.9,102.13a74.22,74.22,0,0,0-5.29,11.32,34,34,0,0,0-2.36,12v60.9H68V72.54h7.29v28.18l6.27-9.18A39.3,39.3,0,0,1,91.15,82,57.58,57.58,0,0,1,114.08,71.3a61.34,61.34,0,0,1,47.8,8.79,53,53,0,0,1,17.2,18.7,76.07,76.07,0,0,1,5.86,12.47,39.51,39.51,0,0,1,2.49,13.53Zm-4.85-2h2.83V124.79A37.42,37.42,0,0,0,183,112a73.59,73.59,0,0,0-5.72-12.17,50.86,50.86,0,0,0-16.55-18,59.84,59.84,0,0,0-22.19-9,60.68,60.68,0,0,0-24.06.52A55.72,55.72,0,0,0,92.36,83.63a37.07,37.07,0,0,0-9.17,9.05q-3.48,5.05-7.48,11l-.28.27-2.2,1.47V74.56H70V184.3h3.25V125.42a36.12,36.12,0,0,1,2.49-12.69,76.9,76.9,0,0,1,5.45-11.64A53.57,53.57,0,0,1,94.51,86.24a55.75,55.75,0,0,1,16.43-8.59,54.46,54.46,0,0,1,17.93-2.58,55.28,55.28,0,0,1,17.94,3.44,54.18,54.18,0,0,1,16,9.35A55.47,55.47,0,0,1,175.27,103a61.28,61.28,0,0,1,5.15,11.68,40.9,40.9,0,0,1,2.16,12.65Z" transform="translate(0.35 0)"/></svg>