<svg id="图层_1" data-name="图层 1" xmlns="http://www.w3.org/2000/svg" viewBox="0 0 256 256"><defs><style>.cls-1{fill:#fff;}</style></defs><title>Logo_weibo</title><path class="cls-1" d="M115.69,141.92a3.72,3.72,0,1,0,3.71,0A3.69,3.69,0,0,0,115.69,141.92Z" transform="translate(-0.5)"/><path class="cls-1" d="M114.19,123.11C93.9,126,79,139,80.81,152.15s19.8,21.57,40.09,18.72,35.24-15.86,33.39-29.05S134.48,120.25,114.19,123.11Zm3,44.16c-12.07,2.35-23.43-3.9-25.39-14S98,133.2,110.07,130.86s23.44,3.9,25.4,14S129.22,164.93,117.15,167.27Z" transform="translate(-0.5)"/><path class="cls-1" d="M104.29,147.22c-3.72,1.73-5.67,5.39-4.37,8.18s5.36,3.64,9.07,1.9,5.67-5.39,4.38-8.18S108,145.49,104.29,147.22Z" transform="translate(-0.5)"/><path class="cls-1" d="M128.5,0a128,128,0,1,0,128,128A128,128,0,0,0,128.5,0Zm-9.1,182.23c-31.76,0-57.5-16.61-57.5-37.1s38.55-52.84,53.31-52.84c6.18,0,18.32,4.61,9.83,19.22-.6,1,19.15-8.49,29.94-2.24s0,16.32,0,17.43,21.68,1.12,21.68,18.43C176.66,165.62,151.16,182.23,119.4,182.23Zm45.19-75.86c-3.57-4.25-10-3.25-10-3.25a3.58,3.58,0,0,1-3.64-3.05,4.35,4.35,0,0,1,3.63-3.65,16.42,16.42,0,0,1,14.45,3.91c6.7,6,4,16,4,16a4.49,4.49,0,0,1-4.34,3.65h-.36a2.63,2.63,0,0,1-2.7-3.55S168.17,110.61,164.59,106.37ZM190,119.19a6.31,6.31,0,0,1-5.54,5.47,4.68,4.68,0,0,1-4.15-5.47s3-11.7-4.34-22.29-23.23-8.75-23.23-8.75a5.48,5.48,0,0,1-5.5-4.84,5.61,5.61,0,0,1,5.52-5s16.5-1.66,28.79,10S190,119.19,190,119.19Z" transform="translate(-0.5)"/></svg>