<svg id="图层_1" data-name="图层 1" xmlns="http://www.w3.org/2000/svg" xmlns:xlink="http://www.w3.org/1999/xlink" viewBox="0 0 32 32"><defs><style>.cls-1{fill:none;}.cls-2{fill:#fff;}.cls-3{clip-path:url(#clip-path);}</style><clipPath id="clip-path" transform="translate(-524 -524)"><rect id="SVGID" class="cls-1" x="532" y="534.24" width="15.84" height="11.51"/></clipPath></defs><title>logo_youtube</title><path class="cls-2" d="M540,524a16,16,0,1,0,16,16A16,16,0,0,0,540,524Zm0,31a15,15,0,1,1,15-15A15,15,0,0,1,540,555Z" transform="translate(-524 -524)"/><g class="cls-3"><path class="cls-2" d="M547.83,540a.62.62,0,0,0,0-.13c0-.15,0-.31,0-.48,0-.49,0-1-.07-1.45a9.9,9.9,0,0,0-.24-1.57,2.48,2.48,0,0,0-1.74-1.74,16.25,16.25,0,0,0-2.85-.26c-.66,0-1.36,0-2.06-.05H539c-.7,0-1.4,0-2.05.05a16.4,16.4,0,0,0-2.86.26,2.48,2.48,0,0,0-1.74,1.74,9,9,0,0,0-.23,1.57c0,.47-.07,1-.08,1.45,0,.17,0,.33,0,.48v.36c0,.15,0,.31,0,.48,0,.49,0,1,.08,1.44a9.86,9.86,0,0,0,.23,1.57,2.45,2.45,0,0,0,1.74,1.74,15.18,15.18,0,0,0,2.86.27c.65,0,1.35,0,2.05.05h1.88c.7,0,1.4,0,2.06-.05a15,15,0,0,0,2.85-.27,2.45,2.45,0,0,0,1.74-1.74,9.71,9.71,0,0,0,.24-1.57c0-.46.06-1,.07-1.44,0-.17,0-.33,0-.48s0-.09,0-.13Zm-1.28.09v.13c0,.13,0,.29,0,.45,0,.47,0,.94-.07,1.38a8.83,8.83,0,0,1-.2,1.34,1.17,1.17,0,0,1-.84.84,16,16,0,0,1-2.57.23l-2,.05H539l-2-.05a16,16,0,0,1-2.58-.23,1.19,1.19,0,0,1-.84-.84,8.83,8.83,0,0,1-.2-1.34c0-.44-.06-.91-.07-1.38,0-.16,0-.32,0-.45v-.34c0-.14,0-.29,0-.45,0-.47,0-.94.07-1.38a9.21,9.21,0,0,1,.2-1.35,1.21,1.21,0,0,1,.84-.84,17.79,17.79,0,0,1,2.58-.22c.64,0,1.33,0,2-.05h1.84c.69,0,1.38,0,2,.05a17.76,17.76,0,0,1,2.57.22,1.21,1.21,0,0,1,.84.84,9.21,9.21,0,0,1,.2,1.35c0,.44.06.91.07,1.38,0,.16,0,.32,0,.45V540Zm-8.21,2.33,4.1-2.39-4.1-2.35Zm0,0" transform="translate(-524 -524)"/></g></svg>