<svg id="图层_1" data-name="图层 1" xmlns="http://www.w3.org/2000/svg" viewBox="0 0 16.2 13.1"><defs><style>.cls-1{fill:#fff;}</style></defs><title>logo-twitter</title><path class="cls-1" d="M548.4,534.8a5.92,5.92,0,0,1-1.9.5,3.1,3.1,0,0,0,1.4-1.8,7.61,7.61,0,0,1-2.1.8,3.32,3.32,0,0,0-4.7-.1,3.1,3.1,0,0,0-1,2.4,2.2,2.2,0,0,0,.1.8,9.56,9.56,0,0,1-6.8-3.4,3.32,3.32,0,0,0,1,4.4,4.19,4.19,0,0,1-1.5-.4h0a3.23,3.23,0,0,0,2.6,3.2,2.77,2.77,0,0,1-.9.1,1.27,1.27,0,0,1-.6-.1,3.34,3.34,0,0,0,3.1,2.3,6.77,6.77,0,0,1-4.1,1.4h-.8a9.28,9.28,0,0,0,12.9-2.9,8.9,8.9,0,0,0,1.5-5v-.4a7.68,7.68,0,0,0,1.8-1.8" transform="translate(-532.2 -533.27)"/></svg>