<svg id="图层_1" data-name="图层 1" xmlns="http://www.w3.org/2000/svg" viewBox="0 0 32 32"><defs><style>.cls-1{fill:#fff;}</style></defs><title>logo_mail</title><path class="cls-1" d="M539.5,524a16,16,0,1,0,16,16A16,16,0,0,0,539.5,524Zm0,31a15,15,0,1,1,15-15A15,15,0,0,1,539.5,555Z" transform="translate(-523.5 -524)"/><polygon class="cls-1" points="19.46 16.52 23.5 20.22 23.5 12.71 19.46 16.52"/><polygon class="cls-1" points="15.94 19.91 13.04 17.15 8.86 21.23 23.02 21.23 18.79 17.15 15.94 19.91"/><polygon class="cls-1" points="8.36 12.77 8.36 20.22 12.3 16.53 8.36 12.77"/><polygon class="cls-1" points="23 11.77 8.84 11.77 15.95 18.66 23 11.77"/></svg>