<svg id="图层_1" data-name="图层 1" xmlns="http://www.w3.org/2000/svg" viewBox="0 0 256 256"><defs><style>.cls-1{fill:#fff;}</style></defs><title>Logo_Telegram</title><path class="cls-1" d="M128,0A128,128,0,1,0,256,128,128,128,0,0,0,128,0Zm60.61,81.73L170,169.54c-1.3,6.23-5.07,7.74-10.28,4.86l-28.37-21-13.64,13.23c-1.58,1.57-2.88,2.88-5.69,2.88l1.92-29,52.64-47.43c2.33-2.12-.48-3.15-3.57-1.3L98,132.87,69.9,124c-6-1.72-6.11-5.9,1.37-8.92L180.73,72.83C185.73,70.56,190.53,74.06,188.61,81.73Z" transform="translate(0)"/></svg>