<svg id="图层_1" data-name="图层 1" xmlns="http://www.w3.org/2000/svg" viewBox="0 0 32.16 20.78"><defs><style>.cls-1{fill:#fff;}</style></defs><title>logo-openingsource-nano</title><path class="cls-1" d="M555.86,532.48c-6.21-.89-12.43-2-18.64-3H536c-3.73,1.07-7.63,2.13-11.36,3.2-.54.17-.54.35-.54.71v14.74c0,.18,0,.35.36.35l10.65,1.6a6,6,0,0,0,1.78.18c2.13-.18,4.26-.53,6.39-.71,4.09-.53,8.17-.89,12.26-1.24.53,0,.53-.18.53-.54V532.83C556.4,532.66,556.22,532.48,555.86,532.48Zm-19.35,7.46v8.7c0,.36,0,.53-.54.36l-10.12-1.6a.47.47,0,0,1-.53-.53V534.08c0-.36.17-.36.53-.53L536,530.7c.54-.17.54-.17.54.36v8.88ZM555,546.51c0,.36-.18.53-.71.53l-9.77,1.07c-2.13.18-4.09.35-6.22.71-.35,0-.53,0-.53-.36V531.59c0-.35,0-.53.53-.53,5.33.89,10.66,1.6,15.81,2.49.53,0,.71.17.71.71v12.25Z" transform="translate(-524.07 -529.46)"/><path class="cls-1" d="M543.25,541.18a11.92,11.92,0,0,0-2.3-.71c-.36,0-.54-1.06-.36-1.06H541l3.37,1.24a.39.39,0,0,1,.36.35.75.75,0,0,1-.36.89l-3.73,1.6c-.35.18-.35,0-.35-.18,0-.88,0-.88.88-1.06l1.78-.71Z" transform="translate(-524.07 -529.46)"/><path class="cls-1" d="M548.05,544.56h.71c.36,0,.53-.18.53.35s0,.53-.53.53a24.6,24.6,0,0,0-3.55.18c-.18,0-.53,0-.36-.35s0-.54.36-.54C546.27,544.73,547,544.56,548.05,544.56Z" transform="translate(-524.07 -529.46)"/><path class="cls-1" d="M528,545.27c-.35,0-.71-.36-.53-.71l5.86-8.53c0-.18.18-.35.35-.18s.71.18.36.54l-2.13,3.19c-1.25,1.78-2.31,3.56-3.55,5.15C528.16,545.09,528,545.09,528,545.27Z" transform="translate(-524.07 -529.46)"/><path class="cls-1" d="M530.29,546.15c-.36,0-.71-.53-.53-.71,1.42-2.13,2.84-4.08,4.26-6.21,0-.18.18-.36.35-.18s.71.18.36.53a14.87,14.87,0,0,0-1.24,1.78c-1.07,1.42-2,2.84-3,4.26C530.47,546,530.47,546.15,530.29,546.15Z" transform="translate(-524.07 -529.46)"/><path class="cls-1" d="M527.27,541.89a.47.47,0,0,1-.53-.53v-.18c1.42-1.95,2.84-4.08,4.26-6,0-.17.18-.35.36-.17s.53.17.35.53a16.25,16.25,0,0,1-.89,1.42l-3.19,4.79C527.45,541.71,527.45,541.89,527.27,541.89Z" transform="translate(-524.07 -529.46)"/><path class="cls-1" d="M528.87,533.9c.35,0,.53.53.53.71l-2.66,3.73c0,.18-.18.36-.36.18s-.71-.18-.53-.53.53-.72.71-1.07a28.5,28.5,0,0,0,2-3Z" transform="translate(-524.07 -529.46)"/><path class="cls-1" d="M535.62,542.78a.63.63,0,0,0-.18.36l-2.66,3.73c0,.17-.18.35-.36.17s-.71-.17-.35-.53l2.84-4.08a.59.59,0,0,1,.35-.18C535.44,542.43,535.44,542.6,535.62,542.78Z" transform="translate(-524.07 -529.46)"/></svg>