<svg id="图层_1" data-name="图层 1" xmlns="http://www.w3.org/2000/svg" viewBox="0 0 256 256"><defs><style>.cls-1{fill:#fff;}</style></defs><title>Logo_Youtube</title><path class="cls-1" d="M180.34,123c-.11-3.76-.29-7.52-.59-11a67.72,67.72,0,0,0-1.58-10.78,9.55,9.55,0,0,0-6.7-6.72c-3-.79-10.45-1.41-20.61-1.8-5.15-.2-10.68-.33-16.21-.4l-5.34,0h-4c-1.61,0-3.4,0-5.34,0-5.53.07-11.07.2-16.21.4-10.16.38-17.64,1-20.6,1.8a9.51,9.51,0,0,0-6.7,6.72A67.52,67.52,0,0,0,74.83,112c-.29,3.49-.49,7.25-.59,11,0,1.31-.06,2.53-.07,3.63,0,.38,0,.71,0,1v.68c0,.28,0,.62,0,1,0,1.09,0,2.32.07,3.64.11,3.76.3,7.51.59,11a67.5,67.5,0,0,0,1.59,10.79,9.54,9.54,0,0,0,6.7,6.71c2.95.79,10.44,1.41,20.6,1.81,5.16.2,10.68.32,16.21.39l5.34.05h4c1.61,0,3.41,0,5.34-.05,5.53-.07,11.07-.19,16.21-.39,10.16-.38,17.64-1,20.61-1.81a9.52,9.52,0,0,0,6.7-6.71A67.69,67.69,0,0,0,179.75,144c.3-3.49.49-7.24.59-11,0-1.32.06-2.53.07-3.64,0-.38,0-.7,0-1v-.68c0-.28,0-.62,0-1C180.4,125.56,180.39,124.33,180.34,123Zm-65.63,23.91V109.06l32.79,18.79Z"/><path class="cls-1" d="M128,0A128,128,0,1,0,256,128,128,128,0,0,0,128,0Zm62.6,128.39c0,.31,0,.66,0,1.07,0,1.15,0,2.43-.07,3.8-.11,4-.31,7.87-.62,11.58a75,75,0,0,1-1.9,12.55,19.67,19.67,0,0,1-13.89,13.92c-4,1.06-11.83,1.72-22.85,2.14-5.24.2-10.85.33-16.46.4l-5.43.06h-4.16l-5.42-.06c-5.61-.07-11.22-.2-16.47-.4-11-.41-18.86-1.07-22.85-2.14a19.69,19.69,0,0,1-13.89-13.92,75.08,75.08,0,0,1-1.89-12.55c-.31-3.71-.51-7.63-.62-11.58,0-1.37-.06-2.65-.07-3.8,0-.41,0-.76,0-1.07v-.79c0-.31,0-.67,0-1.08,0-1.14,0-2.43.07-3.8.11-3.94.31-7.87.62-11.57A73.73,73.73,0,0,1,66.58,98.6,19.69,19.69,0,0,1,80.47,84.68c4-1.06,11.83-1.73,22.85-2.15,5.25-.2,10.86-.32,16.47-.4l5.42,0h4.16l5.43,0c5.61.08,11.22.2,16.46.4,11,.41,18.85,1.07,22.85,2.15A19.69,19.69,0,0,1,188,98.6a75.66,75.66,0,0,1,1.9,12.55c.31,3.7.51,7.63.62,11.57,0,1.37,0,2.66.07,3.8,0,.41,0,.77,0,1.08Z"/></svg>