<svg id="图层_1" data-name="图层 1" xmlns="http://www.w3.org/2000/svg" viewBox="0 0 295.54 85.89"><defs><style>.cls-1{fill:#fff;}</style></defs><title>logo-openingsource-full</title><circle class="cls-1" cx="261.43" cy="31.13" r="1.19"/><path class="cls-1" d="M653.7,529.49a1.69,1.69,0,1,1,1.69-1.69A1.69,1.69,0,0,1,653.7,529.49Zm0-2.38a.69.69,0,1,0,.69.69A.69.69,0,0,0,653.7,527.11Z" transform="translate(-392.26 -496.67)"/><path class="cls-1" d="M405.44,548.16a17.29,17.29,0,0,1-4.35-1.13,18,18,0,0,1-4.26-2.35,11.77,11.77,0,0,1-3.17-3.44,7,7,0,0,1-1-4.43l.94,0a1.39,1.39,0,0,1,1,.27,7.67,7.67,0,0,0,2.16,4.93,12.77,12.77,0,0,0,4.61,3,18.88,18.88,0,0,0,5.72,1.26,16.2,16.2,0,0,0,5.28-.43,18.54,18.54,0,0,0,5.32-2.35,8.26,8.26,0,0,0,3.53-4.46,6.7,6.7,0,0,0-.32-4.93,9.91,9.91,0,0,0-3.28-3.92,11.88,11.88,0,0,0-2.9-1.56,18.2,18.2,0,0,0-3-.83,31.56,31.56,0,0,0-3.17-.39c-1.1-.08-2.2-.17-3.29-.27a12.94,12.94,0,0,1-4.27-1.06,22,22,0,0,1-3.87-2.15,15.51,15.51,0,0,1-2.86-3,7.35,7.35,0,0,1-1.45-3.8,9.1,9.1,0,0,1,.55-4.3,11.19,11.19,0,0,1,2.19-3.49,13.13,13.13,0,0,1,3.33-2.58,20.66,20.66,0,0,1,4-1.68,22.09,22.09,0,0,1,5.05-.59,21.55,21.55,0,0,1,5.64.67,17.75,17.75,0,0,1,5.12,2.15,9.3,9.3,0,0,1,3.52,3.72,11.78,11.78,0,0,1,1.14,2.19,4.85,4.85,0,0,1,.35,2.5h-2a9.49,9.49,0,0,0-1.56-4.11,9.22,9.22,0,0,0-3.29-2.93,22.19,22.19,0,0,0-3.32-1.49,10.58,10.58,0,0,0-3.57-.63,24.46,24.46,0,0,0-7.39.79,12.54,12.54,0,0,0-6.23,4.07,6.56,6.56,0,0,0-1.33,2.46,6.77,6.77,0,0,0-.23,2.7,7.84,7.84,0,0,0,1.53,3.8,9,9,0,0,0,3.09,2.7,24.85,24.85,0,0,0,2.58,1.13,20.88,20.88,0,0,0,2.66.83,2.58,2.58,0,0,1,.51.07,2.12,2.12,0,0,0,.51.08q2.58.32,5,.51a18.1,18.1,0,0,1,4.93,1.14,14.24,14.24,0,0,1,5.05,3.36,10,10,0,0,1,2.58,4.58,9,9,0,0,1-.31,5.09,11.38,11.38,0,0,1-3.56,4.89,13.9,13.9,0,0,1-6.62,3.21A20.81,20.81,0,0,1,405.44,548.16Z" transform="translate(-392.26 -496.67)"/><path class="cls-1" d="M408.39,548.76a19.71,19.71,0,0,1-3-.22,18,18,0,0,1-4.43-1.16,18.65,18.65,0,0,1-4.36-2.4,12.5,12.5,0,0,1-3.26-3.55,7.4,7.4,0,0,1-1-4.65l0-.34h.34c.2,0,.5,0,.91,0a1.79,1.79,0,0,1,1.28.36l.13.1V537a7.36,7.36,0,0,0,2,4.7,12.9,12.9,0,0,0,4.49,2.93,18.68,18.68,0,0,0,5.6,1.22,15.76,15.76,0,0,0,5.16-.41,18.42,18.42,0,0,0,5.22-2.31,7.91,7.91,0,0,0,3.37-4.26,6.35,6.35,0,0,0-.3-4.66,9.61,9.61,0,0,0-3.16-3.76,11.53,11.53,0,0,0-2.81-1.52,17.47,17.47,0,0,0-2.95-.81,27.9,27.9,0,0,0-3.13-.38c-1.1-.08-2.2-.17-3.3-.28a13.41,13.41,0,0,1-4.38-1.08,22.75,22.75,0,0,1-3.93-2.19,15.86,15.86,0,0,1-2.95-3.1,7.69,7.69,0,0,1-1.52-4,9.44,9.44,0,0,1,.57-4.47,11.74,11.74,0,0,1,2.27-3.6,13.25,13.25,0,0,1,3.42-2.66,20.52,20.52,0,0,1,4.1-1.71,22.59,22.59,0,0,1,5.15-.61,22.16,22.16,0,0,1,5.74.68,18.82,18.82,0,0,1,5.23,2.2,9.87,9.87,0,0,1,3.66,3.86,13.18,13.18,0,0,1,1.15,2.23,5.35,5.35,0,0,1,.37,2.69l0,.33h-2.61l-.05-.33a9.23,9.23,0,0,0-1.5-4,8.85,8.85,0,0,0-3.16-2.81,21.54,21.54,0,0,0-3.27-1.47,10.3,10.3,0,0,0-3.44-.6,24.41,24.41,0,0,0-7.29.77,12.22,12.22,0,0,0-6,3.95,6.23,6.23,0,0,0-1.26,2.33,6.54,6.54,0,0,0-.22,2.55,7.58,7.58,0,0,0,1.46,3.62,8.67,8.67,0,0,0,3,2.59c.81.4,1.67.78,2.54,1.11a18.76,18.76,0,0,0,2.62.81,2.38,2.38,0,0,1,.5.08,2.52,2.52,0,0,0,.43.07q2.63.32,5,.51a18.37,18.37,0,0,1,5,1.16,14.5,14.5,0,0,1,5.19,3.46,10.43,10.43,0,0,1,2.68,4.74,9.47,9.47,0,0,1-.33,5.3,11.88,11.88,0,0,1-3.67,5.06,14.33,14.33,0,0,1-6.78,3.29A22.89,22.89,0,0,1,408.39,548.76ZM393,537.18a6.54,6.54,0,0,0,1,3.86,11.6,11.6,0,0,0,3.07,3.34,18,18,0,0,0,4.18,2.3,17,17,0,0,0,4.25,1.11h0a20.61,20.61,0,0,0,7.27-.23,13.56,13.56,0,0,0,6.44-3.12,11.06,11.06,0,0,0,3.45-4.73,8.64,8.64,0,0,0,.31-4.88,9.83,9.83,0,0,0-2.49-4.41,14.1,14.1,0,0,0-4.92-3.28,17.91,17.91,0,0,0-4.82-1.1c-1.62-.13-3.31-.31-5-.52a1.73,1.73,0,0,1-.54-.08,2.52,2.52,0,0,0-.43-.07,18.86,18.86,0,0,1-2.79-.85,26.93,26.93,0,0,1-2.62-1.15,9.29,9.29,0,0,1-3.23-2.81,8.28,8.28,0,0,1-1.59-4,7.3,7.3,0,0,1,.24-2.85,7,7,0,0,1,1.41-2.61,13.15,13.15,0,0,1,6.41-4.19,24.94,24.94,0,0,1,7.51-.79h0a11,11,0,0,1,3.67.65,23,23,0,0,1,3.38,1.51,9.59,9.59,0,0,1,3.42,3.05,10,10,0,0,1,1.58,3.95h1.29a4.67,4.67,0,0,0-.36-2,12.08,12.08,0,0,0-1.1-2.13,9.13,9.13,0,0,0-3.41-3.6,17.92,17.92,0,0,0-5-2.11,21.59,21.59,0,0,0-5.54-.66,22.59,22.59,0,0,0-5,.58,20.28,20.28,0,0,0-3.94,1.65,12.73,12.73,0,0,0-3.23,2.51,10.81,10.81,0,0,0-2.12,3.36,8.68,8.68,0,0,0-.52,4.13,6.89,6.89,0,0,0,1.38,3.61,15.4,15.4,0,0,0,2.78,3,22.74,22.74,0,0,0,3.79,2.1,12.65,12.65,0,0,0,4.15,1l3.28.27a29,29,0,0,1,3.21.4,17.77,17.77,0,0,1,3.08.83,12.68,12.68,0,0,1,3,1.62,10.25,10.25,0,0,1,3.4,4.06,7.11,7.11,0,0,1,.34,5.2,8.7,8.7,0,0,1-3.68,4.66,18.88,18.88,0,0,1-5.43,2.4,16.16,16.16,0,0,1-5.41.44,19.23,19.23,0,0,1-5.82-1.28,13.41,13.41,0,0,1-4.75-3.1,8,8,0,0,1-2.24-5,1.15,1.15,0,0,0-.64-.11Z" transform="translate(-392.26 -496.67)"/><path class="cls-1" d="M449.17,548a19.47,19.47,0,0,1-5.05-1.68,21.48,21.48,0,0,1-4.54-3,23,23,0,0,1-3.67-4,20.45,20.45,0,0,1-2.55-4.73,22.8,22.8,0,0,1-1.45-7.64,21.47,21.47,0,0,1,4.39-13.38,21.08,21.08,0,0,1,5.12-4.85,24,24,0,0,1,6.58-3.06,22.71,22.71,0,0,1,7.67-.82,17.16,17.16,0,0,1,5.63,1.25,31.63,31.63,0,0,1,5.09,2.67,20.33,20.33,0,0,1,4.42,4.14A26.71,26.71,0,0,1,474,518a16.62,16.62,0,0,1,1.45,5.36,37.33,37.33,0,0,1,.12,5.6,10.38,10.38,0,0,1-.43,3,28.4,28.4,0,0,1-1,2.78,19.51,19.51,0,0,1-4,6.57,21.28,21.28,0,0,1-6,4.54,23.34,23.34,0,0,1-7.24,2.31A21.72,21.72,0,0,1,449.17,548Zm1.49-1.8a17.52,17.52,0,0,0,6.69,0,20.92,20.92,0,0,0,6.22-2.23,19,19,0,0,0,9.28-11.51,19.86,19.86,0,0,0,.7-7,20.41,20.41,0,0,0-12.32-17.22,19.28,19.28,0,0,0-5-1.29,18.36,18.36,0,0,0-5.29,0,19.16,19.16,0,0,0-9.35,4.1,21,21,0,0,0-5.95,7.71,20.15,20.15,0,0,0-1.68,9.59,20.11,20.11,0,0,0,9.23,15.15A20.09,20.09,0,0,0,450.66,546.21Z" transform="translate(-392.26 -496.67)"/><path class="cls-1" d="M453.57,548.83a22.52,22.52,0,0,1-4.47-.45,19.57,19.57,0,0,1-5.14-1.72,21.34,21.34,0,0,1-4.62-3.07,23.79,23.79,0,0,1-3.74-4.09,21.2,21.2,0,0,1-2.59-4.82,23.06,23.06,0,0,1-1.47-7.76A21.76,21.76,0,0,1,436,513.3a21.41,21.41,0,0,1,5.21-4.93,24.46,24.46,0,0,1,6.68-3.11,23,23,0,0,1,7.8-.83,17.44,17.44,0,0,1,5.76,1.28,32.32,32.32,0,0,1,5.15,2.69,21.2,21.2,0,0,1,4.51,4.23,27.12,27.12,0,0,1,3.21,5.24,17.38,17.38,0,0,1,1.49,5.48,36.85,36.85,0,0,1,.11,5.66,11.16,11.16,0,0,1-.44,3.1,29,29,0,0,1-1,2.81,20.11,20.11,0,0,1-4.11,6.69,22,22,0,0,1-6.09,4.62,23.85,23.85,0,0,1-7.35,2.34A22.4,22.4,0,0,1,453.57,548.83Zm.65-43.69a21.91,21.91,0,0,0-6.12.84,23.23,23.23,0,0,0-6.47,3,20.55,20.55,0,0,0-5,4.77,21.5,21.5,0,0,0-3.24,6.11,21.18,21.18,0,0,0-1.07,7,22.32,22.32,0,0,0,1.42,7.51,19.87,19.87,0,0,0,2.5,4.64,23.11,23.11,0,0,0,3.62,4,20.83,20.83,0,0,0,4.46,3,19,19,0,0,0,4.95,1.65h0a21.69,21.69,0,0,0,7.58.19,23.27,23.27,0,0,0,7.12-2.27,21.23,21.23,0,0,0,5.89-4.46,19.46,19.46,0,0,0,4-6.45,28.92,28.92,0,0,0,1-2.76,10.32,10.32,0,0,0,.41-2.9,35.49,35.49,0,0,0-.11-5.56,16.58,16.58,0,0,0-1.42-5.24,26.57,26.57,0,0,0-3.12-5.09,20.37,20.37,0,0,0-4.34-4.08,31.9,31.9,0,0,0-5-2.62,16.68,16.68,0,0,0-5.51-1.22C455.17,505.15,454.69,505.14,454.22,505.14Zm-.35,41.75a17.85,17.85,0,0,1-3.27-.31,20.66,20.66,0,0,1-7.57-2.79,20.5,20.5,0,0,1-9.42-15.44,20.62,20.62,0,0,1,1.72-9.77,21.55,21.55,0,0,1,6.05-7.85,19.71,19.71,0,0,1,9.53-4.18,19.44,19.44,0,0,1,5.39-.05,20,20,0,0,1,5.07,1.32,20.74,20.74,0,0,1,11.84,24.71,19.38,19.38,0,0,1-9.45,11.74,21.83,21.83,0,0,1-6.34,2.27A18.65,18.65,0,0,1,453.87,546.89Zm-.14-39.8a17.16,17.16,0,0,0-2.7.2,18.89,18.89,0,0,0-9.17,4,20.71,20.71,0,0,0-5.85,7.58,19.87,19.87,0,0,0-1.65,9.41,19.79,19.79,0,0,0,9.06,14.85,19.87,19.87,0,0,0,7.3,2.69h0a17.19,17.19,0,0,0,6.55,0,20.56,20.56,0,0,0,6.11-2.19,18.58,18.58,0,0,0,5.87-5,18.82,18.82,0,0,0,3.23-6.33,19.62,19.62,0,0,0,.69-6.91,20.06,20.06,0,0,0-1.73-6.77,20.38,20.38,0,0,0-4.07-5.87,20,20,0,0,0-6.3-4.27,19.44,19.44,0,0,0-4.87-1.26A19,19,0,0,0,453.73,507.09Z" transform="translate(-392.26 -496.67)"/><path class="cls-1" d="M495.06,548.16a17.29,17.29,0,0,1-4.35-1.13,18,18,0,0,1-4.26-2.35,11.77,11.77,0,0,1-3.17-3.44,7,7,0,0,1-1-4.43l.94,0a1.39,1.39,0,0,1,1,.27,7.67,7.67,0,0,0,2.16,4.93,12.77,12.77,0,0,0,4.61,3,18.88,18.88,0,0,0,5.72,1.26,16.2,16.2,0,0,0,5.28-.43,18.54,18.54,0,0,0,5.32-2.35,8.26,8.26,0,0,0,3.53-4.46,6.7,6.7,0,0,0-.32-4.93,9.91,9.91,0,0,0-3.28-3.92,11.88,11.88,0,0,0-2.9-1.56,18.2,18.2,0,0,0-3-.83,31.56,31.56,0,0,0-3.17-.39c-1.1-.08-2.2-.17-3.29-.27a12.94,12.94,0,0,1-4.27-1.06,22,22,0,0,1-3.87-2.15,15.51,15.51,0,0,1-2.86-3,7.35,7.35,0,0,1-1.45-3.8,9.1,9.1,0,0,1,.55-4.3,11.19,11.19,0,0,1,2.19-3.49,13.13,13.13,0,0,1,3.33-2.58,20.66,20.66,0,0,1,4-1.68,22.09,22.09,0,0,1,5.05-.59,21.55,21.55,0,0,1,5.64.67,17.75,17.75,0,0,1,5.12,2.15,9.3,9.3,0,0,1,3.52,3.72,11.78,11.78,0,0,1,1.14,2.19,4.85,4.85,0,0,1,.35,2.5h-2a9.49,9.49,0,0,0-1.56-4.11,9.22,9.22,0,0,0-3.29-2.93,22.19,22.19,0,0,0-3.32-1.49,10.58,10.58,0,0,0-3.57-.63,24.46,24.46,0,0,0-7.39.79,12.54,12.54,0,0,0-6.23,4.07,6.56,6.56,0,0,0-1.33,2.46,6.77,6.77,0,0,0-.23,2.7,7.84,7.84,0,0,0,1.53,3.8,9,9,0,0,0,3.09,2.7,24.85,24.85,0,0,0,2.58,1.13,20.88,20.88,0,0,0,2.66.83,2.58,2.58,0,0,1,.51.07,2.12,2.12,0,0,0,.51.08q2.58.32,5,.51a18.1,18.1,0,0,1,4.93,1.14,14.24,14.24,0,0,1,5.05,3.36,10,10,0,0,1,2.58,4.58,9,9,0,0,1-.31,5.09,11.38,11.38,0,0,1-3.56,4.89,13.9,13.9,0,0,1-6.62,3.21A20.81,20.81,0,0,1,495.06,548.16Z" transform="translate(-392.26 -496.67)"/><path class="cls-1" d="M498,548.76a19.71,19.71,0,0,1-3-.22,18,18,0,0,1-4.43-1.16,18.65,18.65,0,0,1-4.36-2.4,12.37,12.37,0,0,1-3.26-3.55,7.4,7.4,0,0,1-1-4.65l0-.34h.34c.2,0,.5,0,.91,0a1.8,1.8,0,0,1,1.28.36l.12.1,0,.16a7.36,7.36,0,0,0,2,4.7,12.9,12.9,0,0,0,4.49,2.93,18.68,18.68,0,0,0,5.6,1.22,15.76,15.76,0,0,0,5.16-.41,18.42,18.42,0,0,0,5.22-2.31,7.91,7.91,0,0,0,3.37-4.26,6.35,6.35,0,0,0-.3-4.66,9.61,9.61,0,0,0-3.16-3.76,11.71,11.71,0,0,0-2.81-1.52,17.47,17.47,0,0,0-2.95-.81,28.19,28.19,0,0,0-3.13-.38c-1.1-.08-2.2-.17-3.3-.28a13.41,13.41,0,0,1-4.38-1.08,22.75,22.75,0,0,1-3.93-2.19,16.16,16.16,0,0,1-2.95-3.1,7.69,7.69,0,0,1-1.52-4,9.44,9.44,0,0,1,.57-4.47,11.51,11.51,0,0,1,2.27-3.6,13.25,13.25,0,0,1,3.42-2.66,20.52,20.52,0,0,1,4.1-1.71,22.59,22.59,0,0,1,5.15-.61,22.16,22.16,0,0,1,5.74.68,18.82,18.82,0,0,1,5.23,2.2,9.87,9.87,0,0,1,3.66,3.86,13.18,13.18,0,0,1,1.15,2.23,5.35,5.35,0,0,1,.37,2.69l0,.33h-2.61l0-.33a9.23,9.23,0,0,0-1.5-4,8.85,8.85,0,0,0-3.16-2.81,22.57,22.57,0,0,0-3.27-1.47,10.3,10.3,0,0,0-3.44-.6,24.19,24.19,0,0,0-7.3.77,12.24,12.24,0,0,0-6,3.95,6.23,6.23,0,0,0-1.26,2.33,6.54,6.54,0,0,0-.22,2.55,7.58,7.58,0,0,0,1.46,3.62,8.67,8.67,0,0,0,3,2.59c.81.4,1.67.78,2.54,1.11a18.76,18.76,0,0,0,2.62.81,2.38,2.38,0,0,1,.5.08,2.52,2.52,0,0,0,.43.07q2.63.32,5,.51a18.37,18.37,0,0,1,5,1.16,14.5,14.5,0,0,1,5.19,3.46,10.48,10.48,0,0,1,2.68,4.74A9.47,9.47,0,0,1,513,540a11.82,11.82,0,0,1-3.67,5.06,14.38,14.38,0,0,1-6.78,3.29A22.89,22.89,0,0,1,498,548.76Zm-15.36-11.58a6.54,6.54,0,0,0,1,3.86,11.6,11.6,0,0,0,3.07,3.34,18,18,0,0,0,4.18,2.3,17,17,0,0,0,4.25,1.11h0a20.61,20.61,0,0,0,7.27-.23,13.56,13.56,0,0,0,6.44-3.12,11.06,11.06,0,0,0,3.45-4.73,8.64,8.64,0,0,0,.31-4.88,9.83,9.83,0,0,0-2.49-4.41,14.1,14.1,0,0,0-4.92-3.28,17.91,17.91,0,0,0-4.82-1.1c-1.62-.13-3.31-.31-5-.52a2.06,2.06,0,0,1-.54-.08,2.52,2.52,0,0,0-.43-.07,18.86,18.86,0,0,1-2.79-.85,26.93,26.93,0,0,1-2.62-1.15,9.29,9.29,0,0,1-3.23-2.81,8.28,8.28,0,0,1-1.59-4,7.3,7.3,0,0,1,.24-2.85,7,7,0,0,1,1.41-2.61,13.05,13.05,0,0,1,6.41-4.18,24.62,24.62,0,0,1,7.51-.8h0a11,11,0,0,1,3.67.65,22.52,22.52,0,0,1,3.38,1.51,9.59,9.59,0,0,1,3.42,3.05,10,10,0,0,1,1.58,3.95H513a4.67,4.67,0,0,0-.36-2,12.08,12.08,0,0,0-1.1-2.13,9.13,9.13,0,0,0-3.41-3.6,17.92,17.92,0,0,0-5-2.11,21.59,21.59,0,0,0-5.54-.66,22.59,22.59,0,0,0-5,.58,20.28,20.28,0,0,0-3.94,1.65,12.73,12.73,0,0,0-3.23,2.51,10.88,10.88,0,0,0-2.12,3.36,8.68,8.68,0,0,0-.52,4.13,7,7,0,0,0,1.37,3.61,15.76,15.76,0,0,0,2.79,3,22.74,22.74,0,0,0,3.79,2.1,12.65,12.65,0,0,0,4.15,1l3.28.27a29.31,29.31,0,0,1,3.21.4,17.77,17.77,0,0,1,3.08.83,12.68,12.68,0,0,1,3,1.62,10.25,10.25,0,0,1,3.4,4.06,7.11,7.11,0,0,1,.34,5.2,8.7,8.7,0,0,1-3.68,4.66,18.88,18.88,0,0,1-5.43,2.4,16.19,16.19,0,0,1-5.41.44,19.23,19.23,0,0,1-5.82-1.28,13.41,13.41,0,0,1-4.75-3.1,8,8,0,0,1-2.24-5,1.15,1.15,0,0,0-.64-.11Z" transform="translate(-392.26 -496.67)"/><path class="cls-1" d="M537.24,547.77a18.51,18.51,0,0,1-7.67-3.48,20,20,0,0,1-5.63-6.38,25,25,0,0,1-2.94-8.65,23.82,23.82,0,0,1,.36-8.92,22.9,22.9,0,0,1,3.63-8.06,21.2,21.2,0,0,1,6.85-6.15,18.82,18.82,0,0,1,8.69-2.54,21.35,21.35,0,0,1,16.2,6.26,19.08,19.08,0,0,1,4.78,7.79l-.24.15a2.22,2.22,0,0,0-.62.2c-.32.13-.58.25-.79.35h-.15a25.88,25.88,0,0,0-2.74-4.65,24,24,0,0,0-3.72-4,18.51,18.51,0,0,0-4.58-2.85,15.41,15.41,0,0,0-5.32-1.26,17.94,17.94,0,0,0-8.81,1.57,26.28,26.28,0,0,0-7.16,5.48,13,13,0,0,0-2.78,4.46,36.79,36.79,0,0,0-1.52,5,16.76,16.76,0,0,0-.36,5,26.68,26.68,0,0,0,.9,5,19.63,19.63,0,0,0,4.94,8.53,18.56,18.56,0,0,0,7.82,4.78,18.93,18.93,0,0,0,9.12.43,17.7,17.7,0,0,0,11.9-8.22q1.22-2,2.31-4.27l.15-.23,1.65.55s0,.26-.08.62-.24.75-.39,1.14-.31.75-.47,1.09a3.48,3.48,0,0,1-.31.59,25,25,0,0,1-4.27,5.4,21.51,21.51,0,0,1-5.44,3.8,20.09,20.09,0,0,1-13.31,1.52Z" transform="translate(-392.26 -496.67)"/><path class="cls-1" d="M541.8,548.65a21.88,21.88,0,0,1-4.63-.51,18.86,18.86,0,0,1-7.82-3.55,20.6,20.6,0,0,1-5.74-6.5,25.48,25.48,0,0,1-3-8.77,24.19,24.19,0,0,1,.36-9.07,23.48,23.48,0,0,1,3.7-8.19,21.49,21.49,0,0,1,7-6.25,19.25,19.25,0,0,1,8.86-2.6A21.81,21.81,0,0,1,557,509.58a19.61,19.61,0,0,1,4.86,7.94l.09.27-.56.38h-.12a2.07,2.07,0,0,0-.48.17c-.3.12-.56.24-.76.34l-.17,0h-.39l-.1-.22a25.78,25.78,0,0,0-2.7-4.59A23.18,23.18,0,0,0,553,510a18.59,18.59,0,0,0-4.49-2.8,14.93,14.93,0,0,0-5.19-1.22,17.53,17.53,0,0,0-8.62,1.53,25.74,25.74,0,0,0-7.06,5.4,12.75,12.75,0,0,0-2.7,4.33,38.48,38.48,0,0,0-1.51,5,16.71,16.71,0,0,0-.34,4.86,25.17,25.17,0,0,0,.89,4.9,19.24,19.24,0,0,0,4.83,8.37,18.37,18.37,0,0,0,7.67,4.68,18.69,18.69,0,0,0,8.94.42,18.29,18.29,0,0,0,8.63-4.34,18.49,18.49,0,0,0,3-3.71c.8-1.31,1.57-2.74,2.29-4.23l.34-.52,2.07.73c.19.2.15.5,0,1s-.24.77-.4,1.18-.32.77-.48,1.11a2.13,2.13,0,0,1-.39.69,24.61,24.61,0,0,1-4.27,5.41,21.75,21.75,0,0,1-5.54,3.86,20.5,20.5,0,0,1-6.45,1.92A20.06,20.06,0,0,1,541.8,548.65Zm-.29-44.71-1,0a18.46,18.46,0,0,0-8.52,2.5,20.76,20.76,0,0,0-6.73,6,22.71,22.71,0,0,0-3.58,7.93,23.76,23.76,0,0,0-.35,8.79,24.74,24.74,0,0,0,2.9,8.52A19.78,19.78,0,0,0,529.8,544a18.22,18.22,0,0,0,7.51,3.42h0a19.9,19.9,0,0,0,13.07-1.5,21.33,21.33,0,0,0,5.34-3.73,24.47,24.47,0,0,0,4.2-5.32,3.06,3.06,0,0,0,.3-.55c.15-.34.31-.7.46-1.08s.28-.75.38-1.1c0-.11,0-.19.06-.25L560,533.5c-.71,1.48-1.49,2.92-2.3,4.25a19.44,19.44,0,0,1-3.15,3.88,19.23,19.23,0,0,1-9,4.52,19.43,19.43,0,0,1-9.3-.44,19.14,19.14,0,0,1-8-4.87,20.15,20.15,0,0,1-5-8.69,26.85,26.85,0,0,1-.91-5,17.5,17.5,0,0,1,.36-5.08,39.56,39.56,0,0,1,1.54-5.06,13.5,13.5,0,0,1,2.86-4.59,26.77,26.77,0,0,1,7.27-5.56,18.3,18.3,0,0,1,9-1.6,15.92,15.92,0,0,1,5.45,1.28,19.1,19.1,0,0,1,4.67,2.92,24.23,24.23,0,0,1,3.78,4.05,27,27,0,0,1,2.65,4.44l.58-.26.55-.19a18.91,18.91,0,0,0-4.58-7.33,21,21,0,0,0-15-6.18Z" transform="translate(-392.26 -496.67)"/><path class="cls-1" d="M585.86,548a19.35,19.35,0,0,1-5.05-1.68,21.23,21.23,0,0,1-4.54-3,23.47,23.47,0,0,1-3.68-4,20,20,0,0,1-2.54-4.73,22.8,22.8,0,0,1-1.45-7.64,21.39,21.39,0,0,1,1.1-7.16,21.83,21.83,0,0,1,3.28-6.22,21.31,21.31,0,0,1,5.13-4.85,23.74,23.74,0,0,1,6.58-3.06,22.71,22.71,0,0,1,7.67-.82,17.16,17.16,0,0,1,5.63,1.25,32.06,32.06,0,0,1,5.09,2.67,20.56,20.56,0,0,1,4.42,4.14,27.21,27.21,0,0,1,3.17,5.17,16.88,16.88,0,0,1,1.45,5.36,37.33,37.33,0,0,1,.12,5.6,10.73,10.73,0,0,1-.43,3c-.29,1-.62,1.89-1,2.78a19.67,19.67,0,0,1-4,6.57,21.43,21.43,0,0,1-6,4.54,23.42,23.42,0,0,1-7.24,2.31A21.72,21.72,0,0,1,585.86,548Zm1.49-1.8a17.52,17.52,0,0,0,6.69,0,21,21,0,0,0,6.22-2.23,19.07,19.07,0,0,0,6-5.05,19.3,19.3,0,0,0,3.29-6.46,20.09,20.09,0,0,0,.7-7,20.39,20.39,0,0,0-12.33-17.22,19.18,19.18,0,0,0-5-1.29,18.29,18.29,0,0,0-5.28,0,19.16,19.16,0,0,0-9.35,4.1,21,21,0,0,0-5.95,7.71,20.28,20.28,0,0,0-1.69,9.59,20.15,20.15,0,0,0,9.24,15.15A20.09,20.09,0,0,0,587.35,546.21Z" transform="translate(-392.26 -496.67)"/><path class="cls-1" d="M590.26,548.83a22.45,22.45,0,0,1-4.47-.45,19.57,19.57,0,0,1-5.14-1.72,21.41,21.41,0,0,1-4.63-3.07,24.14,24.14,0,0,1-3.73-4.09,20.44,20.44,0,0,1-2.59-4.82,23.06,23.06,0,0,1-1.47-7.76,21.91,21.91,0,0,1,1.11-7.29,22.61,22.61,0,0,1,3.34-6.33,21.64,21.64,0,0,1,5.22-4.93,24.32,24.32,0,0,1,6.68-3.11,23,23,0,0,1,7.8-.83,17.38,17.38,0,0,1,5.75,1.28,31.9,31.9,0,0,1,5.15,2.69,21.26,21.26,0,0,1,4.52,4.23,28.14,28.14,0,0,1,3.21,5.24,17.1,17.1,0,0,1,1.48,5.48,35.65,35.65,0,0,1,.12,5.66,11.16,11.16,0,0,1-.44,3.1c-.29,1-.63,1.92-1,2.81a20.11,20.11,0,0,1-4.11,6.69,22,22,0,0,1-6.09,4.62,23.85,23.85,0,0,1-7.35,2.34A22.5,22.5,0,0,1,590.26,548.83Zm.65-43.69a21.86,21.86,0,0,0-6.12.84,23.23,23.23,0,0,0-6.47,3,20.77,20.77,0,0,0-5,4.77,21.72,21.72,0,0,0-3.23,6.11,21.22,21.22,0,0,0-1.07,7,22.36,22.36,0,0,0,1.42,7.51,20.07,20.07,0,0,0,2.5,4.64,22.71,22.71,0,0,0,3.62,4,20.83,20.83,0,0,0,4.46,3,19,19,0,0,0,4.95,1.65h0a21.4,21.4,0,0,0,7.57.19,23.06,23.06,0,0,0,7.13-2.27,21.18,21.18,0,0,0,5.88-4.46,19.53,19.53,0,0,0,4-6.45c.36-.88.68-1.81,1-2.76a10.32,10.32,0,0,0,.41-2.9,35.51,35.51,0,0,0-.11-5.56,16.58,16.58,0,0,0-1.42-5.24,26.88,26.88,0,0,0-3.12-5.09,20.18,20.18,0,0,0-4.35-4.08,31.36,31.36,0,0,0-5-2.62,16.74,16.74,0,0,0-5.51-1.22C591.86,505.15,591.38,505.14,590.91,505.14Zm-.35,41.75a18,18,0,0,1-3.28-.31,20.79,20.79,0,0,1-7.57-2.79,20.53,20.53,0,0,1-9.41-15.44,20.62,20.62,0,0,1,1.72-9.77,21.44,21.44,0,0,1,6.05-7.85,19.67,19.67,0,0,1,9.53-4.18,19.43,19.43,0,0,1,5.39-.05,20.07,20.07,0,0,1,5.07,1.32,20.73,20.73,0,0,1,12.55,17.54,20.38,20.38,0,0,1-.71,7.17,19.35,19.35,0,0,1-9.46,11.74,21.66,21.66,0,0,1-6.33,2.27A18.73,18.73,0,0,1,590.56,546.89Zm-.15-39.8a17.13,17.13,0,0,0-2.69.2,18.92,18.92,0,0,0-9.18,4,20.78,20.78,0,0,0-5.84,7.58,19.75,19.75,0,0,0-1.65,9.41,19.71,19.71,0,0,0,9.06,14.85,19.8,19.8,0,0,0,7.3,2.69h0a17.19,17.19,0,0,0,6.55,0,20.56,20.56,0,0,0,6.11-2.19,18.69,18.69,0,0,0,5.87-5,19,19,0,0,0,3.23-6.33,19.85,19.85,0,0,0,.69-6.91,20.08,20.08,0,0,0-12.11-16.91,19.22,19.22,0,0,0-4.87-1.26A18.88,18.88,0,0,0,590.41,507.09Z" transform="translate(-392.26 -496.67)"/><path class="cls-1" d="M622.48,506v11.11l.24-.16,2.77-4.07a14.11,14.11,0,0,1,3.49-3.44,20.9,20.9,0,0,1,8.37-3.91,22.63,22.63,0,0,1,9.08-.2,22.37,22.37,0,0,1,8.38,3.41,19.17,19.17,0,0,1,6.26,6.81,27.45,27.45,0,0,1,2.15,4.57,14.25,14.25,0,0,1,.9,4.9v22.46h-1.8V525.94a14.73,14.73,0,0,0-.78-4.58,22.07,22.07,0,0,0-1.88-4.27,20.27,20.27,0,0,0-4.54-5.52,20.05,20.05,0,0,0-18.9-3.72,20.25,20.25,0,0,0-6,3.14,19.07,19.07,0,0,0-4.85,5.4,28.16,28.16,0,0,0-2,4.26,13,13,0,0,0-.9,4.58v22.23h-2V506Z" transform="translate(-392.26 -496.67)"/><path class="cls-1" d="M664.5,547.84H662v-21.9a14.34,14.34,0,0,0-.77-4.47,21.85,21.85,0,0,0-1.84-4.19,19.91,19.91,0,0,0-4.46-5.42,19.33,19.33,0,0,0-5.72-3.34,19.82,19.82,0,0,0-6.42-1.23,19.52,19.52,0,0,0-6.41.92,20,20,0,0,0-5.88,3.08,19,19,0,0,0-4.75,5.29,27.38,27.38,0,0,0-2,4.2,12.74,12.74,0,0,0-.88,4.45v22.61h-2.7V505.6h2.7v10.46c.83-1.21,1.6-2.35,2.34-3.41a14.64,14.64,0,0,1,3.57-3.54,21.52,21.52,0,0,1,8.51-4A22.74,22.74,0,0,1,655,508.4a19.74,19.74,0,0,1,6.39,6.94,28.54,28.54,0,0,1,2.17,4.63,14.5,14.5,0,0,1,.93,5Zm-1.8-.75h1V525a14,14,0,0,0-.88-4.77,27.93,27.93,0,0,0-2.12-4.51A18.94,18.94,0,0,0,654.6,509a22,22,0,0,0-17.17-3.16,20.65,20.65,0,0,0-8.22,3.85,13.8,13.8,0,0,0-3.41,3.36c-.86,1.25-1.78,2.61-2.77,4.06l-.11.11-.82.54V506.35h-1.2v40.74h1.2V525.23a13.49,13.49,0,0,1,.93-4.71,29.5,29.5,0,0,1,2-4.32,20,20,0,0,1,5-5.51,20.86,20.86,0,0,1,6.1-3.19A20.2,20.2,0,0,1,660,516.91a21.83,21.83,0,0,1,1.91,4.33,14.9,14.9,0,0,1,.81,4.7Z" transform="translate(-392.26 -496.67)"/><path class="cls-1" d="M670.68,517.68v-1.44h5V509c0-.07.05-.4.15-1s.18-1,.25-1.26a9.92,9.92,0,0,1,1.61-3.35,10.52,10.52,0,0,1,2.61-2.5,11.07,11.07,0,0,1,3.29-1.52,11.27,11.27,0,0,1,3.67-.37v1.43a13.77,13.77,0,0,0-5.76,1.44,7.5,7.5,0,0,0-3.7,4.47,9.7,9.7,0,0,0-.48,1.52,6.57,6.57,0,0,0-.21,1.63v6.7h9.52v1.44h-9.34l-.18.28v29.58h-1.43V517.68Z" transform="translate(-392.26 -496.67)"/><path class="cls-1" d="M677.66,548.11h-2.57V518.25h-5v-2.57h5V509a7.7,7.7,0,0,1,.16-1.07,10.16,10.16,0,0,1,.27-1.32,10.5,10.5,0,0,1,1.69-3.53,11.46,11.46,0,0,1,2.75-2.63,11.73,11.73,0,0,1,3.46-1.6,12.11,12.11,0,0,1,3.85-.39l.54,0V501l-.55,0a13.38,13.38,0,0,0-5.52,1.37,6.88,6.88,0,0,0-3.42,4.15,9.36,9.36,0,0,0-.47,1.47,6.56,6.56,0,0,0-.19,1.5v6.14h9.52v2.57h-9.52ZM676.23,547h.3V517.81l.42-.7H686v-.3h-9.51v-7.27a7.77,7.77,0,0,1,.21-1.77,10.73,10.73,0,0,1,.52-1.6,8,8,0,0,1,4-4.76,14.12,14.12,0,0,1,5.45-1.46v-.35a10.8,10.8,0,0,0-2.95.37,10.44,10.44,0,0,0-5.6,3.81,9.64,9.64,0,0,0-1.51,3.16c-.07.25-.15.66-.24,1.2s-.13.8-.14.9v7.77h-5v.3h5Z" transform="translate(-392.26 -496.67)"/><circle class="cls-1" cx="53.7" cy="24.19" r="1.19"/><path class="cls-1" d="M446,522.56a1.69,1.69,0,1,1,1.68-1.69A1.69,1.69,0,0,1,446,522.56Zm0-2.38a.69.69,0,0,0,0,1.38.69.69,0,0,0,0-1.38Z" transform="translate(-392.26 -496.67)"/><circle class="cls-1" cx="69.27" cy="24.19" r="1.19"/><path class="cls-1" d="M461.53,522.56a1.69,1.69,0,1,1,1.69-1.69A1.69,1.69,0,0,1,461.53,522.56Zm0-2.38a.69.69,0,1,0,.69.69A.69.69,0,0,0,461.53,520.18Z" transform="translate(-392.26 -496.67)"/><rect class="cls-1" x="46.55" width="29.91" height="2.33"/><path class="cls-1" d="M392.26,577.05a.46.46,0,0,1,.48-.46.49.49,0,0,1,.41.21l.23.3a2.91,2.91,0,0,0,.85.65,2.8,2.8,0,0,0,1.24.28,2.65,2.65,0,0,0,1.72-.62,2.91,2.91,0,0,0,.69-.83,2.45,2.45,0,0,0,.27-1.2,2.68,2.68,0,0,0-1.47-2.3,2.67,2.67,0,0,0-1-.28,3.19,3.19,0,0,1-1.14-.33,3,3,0,0,1-.92-.7,3.08,3.08,0,0,1-.53-.88,2.6,2.6,0,0,1-.19-1,2.85,2.85,0,0,1,1.06-2.27,3,3,0,0,1,2-.7,3.07,3.07,0,0,1,2.3,1,2.7,2.7,0,0,1,.29.4.44.44,0,0,1,.07.26.41.41,0,0,1-.14.32.44.44,0,0,1-.33.13.38.38,0,0,1-.32-.12c-.08-.11-.18-.23-.3-.37a2,2,0,0,0-1.4-.72,2.2,2.2,0,0,0-1.52.48,1.88,1.88,0,0,0-.72,1.35,2,2,0,0,0,1.12,2,2.37,2.37,0,0,0,.77.21,3.94,3.94,0,0,1,1.37.39,3.78,3.78,0,0,1,1.13.85,4,4,0,0,1,.64,1.06,3.24,3.24,0,0,1,.22,1.18,3.49,3.49,0,0,1-.36,1.66,3.74,3.74,0,0,1-.93,1.1,3.62,3.62,0,0,1-2.34.85,3.74,3.74,0,0,1-2.82-1.26,3,3,0,0,1-.28-.36A.46.46,0,0,1,392.26,577.05Z" transform="translate(-392.26 -496.67)"/><path class="cls-1" d="M405.9,578a.52.52,0,0,1,.35.14.46.46,0,0,1,0,.66.52.52,0,0,1-.35.14c-2,0-3-1-3-3v-4.52h-.8a.5.5,0,0,1-.35-.14.46.46,0,0,1,0-.66.49.49,0,0,1,.35-.13h.8v-3.16a.42.42,0,0,1,.14-.33.45.45,0,0,1,.34-.13.47.47,0,0,1,.34.13.43.43,0,0,1,.15.33v3.16h1.44a.49.49,0,0,1,.35.13.46.46,0,0,1,0,.66.5.5,0,0,1-.35.14h-1.44V576A1.81,1.81,0,0,0,405.9,578Z" transform="translate(-392.26 -496.67)"/><path class="cls-1" d="M416.82,578.49a.42.42,0,0,1-.14.33.5.5,0,0,1-.35.14.49.49,0,0,1-.34-.14.45.45,0,0,1-.14-.33v-.87A4.4,4.4,0,0,1,412.8,579a4,4,0,0,1-2.84-1.14,3.72,3.72,0,0,1-1.17-2.77v-4a.44.44,0,0,1,.13-.33.49.49,0,0,1,.35-.13.48.48,0,0,1,.34.13.45.45,0,0,1,.14.33v4a2.77,2.77,0,0,0,.89,2.1,3,3,0,0,0,2.16.87,3,3,0,0,0,2.16-.87,2.81,2.81,0,0,0,.89-2.1v-4a.45.45,0,0,1,.14-.33.48.48,0,0,1,.34-.13.49.49,0,0,1,.35.13.42.42,0,0,1,.14.33Z" transform="translate(-392.26 -496.67)"/><path class="cls-1" d="M426.84,567.39a.45.45,0,0,1,.14-.33.49.49,0,0,1,.35-.13.47.47,0,0,1,.34.13.45.45,0,0,1,.14.33v7.36a4,4,0,0,1-1.27,3,4.42,4.42,0,0,1-6.14,0,4.12,4.12,0,0,1,0-6,4.45,4.45,0,0,1,6.14,0l.3.29Zm0,7.36a3.11,3.11,0,0,0-1-2.32,3.44,3.44,0,0,0-4.77,0,3.2,3.2,0,0,0,0,4.63,3.44,3.44,0,0,0,4.77,0A3.09,3.09,0,0,0,426.84,574.75Z" transform="translate(-392.26 -496.67)"/><path class="cls-1" d="M436.91,577.14a.48.48,0,0,1,.34.14.49.49,0,0,1,.14.34.44.44,0,0,1-.12.32,4.26,4.26,0,0,1-2.83,1,4.21,4.21,0,0,1-3.07-1.24,4.12,4.12,0,0,1,0-6,4.45,4.45,0,0,1,6.14,0,4,4,0,0,1,1.27,3,.45.45,0,0,1-.14.33.48.48,0,0,1-.34.13h-7.23a3.5,3.5,0,0,0,1,1.85,3.31,3.31,0,0,0,2.39,1,3.37,3.37,0,0,0,2.17-.77A.46.46,0,0,1,436.91,577.14Zm.88-2.86a3.39,3.39,0,0,0-1-1.85,3.44,3.44,0,0,0-4.77,0,3.5,3.5,0,0,0-1,1.85Z" transform="translate(-392.26 -496.67)"/><path class="cls-1" d="M441.07,571a.45.45,0,0,1,.14-.33.48.48,0,0,1,.34-.13.45.45,0,0,1,.34.13.42.42,0,0,1,.14.33v.87a4.41,4.41,0,0,1,3.06-1.33,3.89,3.89,0,0,1,2.83,1.14,3.66,3.66,0,0,1,1.19,2.76v4a.45.45,0,0,1-.14.33.5.5,0,0,1-.35.14.48.48,0,0,1-.34-.14.45.45,0,0,1-.14-.33v-4a2.75,2.75,0,0,0-.9-2.09,3.08,3.08,0,0,0-4.31,0,2.78,2.78,0,0,0-.9,2.09v4a.42.42,0,0,1-.14.33.46.46,0,0,1-.34.14.49.49,0,0,1-.34-.14.45.45,0,0,1-.14-.33Z" transform="translate(-392.26 -496.67)"/><path class="cls-1" d="M455.21,578a.5.5,0,0,1,.35.14.46.46,0,0,1,0,.66.5.5,0,0,1-.35.14q-3,0-3-3v-4.52h-.8a.52.52,0,0,1-.35-.14.46.46,0,0,1,0-.66.51.51,0,0,1,.35-.13h.8v-3.16a.42.42,0,0,1,.14-.33.45.45,0,0,1,.34-.13.47.47,0,0,1,.34.13.43.43,0,0,1,.15.33v3.16h1.45a.47.47,0,0,1,.34.13.46.46,0,0,1,0,.66.48.48,0,0,1-.34.14h-1.45V576A1.81,1.81,0,0,0,455.21,578Z" transform="translate(-392.26 -496.67)"/><path class="cls-1" d="M459.59,574.6h0a4.89,4.89,0,0,1-.59-.26,1.48,1.48,0,0,1-.38-.26,1.67,1.67,0,0,1-.52-1.21,1.73,1.73,0,0,1,.55-1.24,4,4,0,0,1,2.91-1.09,4.3,4.3,0,0,1,1.81.39,5,5,0,0,1,1.52,1.12.37.37,0,0,1,.09.26.45.45,0,0,1-.14.33.46.46,0,0,1-.35.14.38.38,0,0,1-.3-.12l-.24-.23a3.31,3.31,0,0,0-2.39-1,3,3,0,0,0-2.25.87.93.93,0,0,0-.24.65.74.74,0,0,0,.14.39.84.84,0,0,0,.37.25l4,1.27h0a4.55,4.55,0,0,1,.6.25,1.19,1.19,0,0,1,.36.26,1.63,1.63,0,0,1,.53,1.21,1.67,1.67,0,0,1-.55,1.24,4,4,0,0,1-2.91,1.1,4.37,4.37,0,0,1-3.33-1.51.4.4,0,0,1-.09-.27.48.48,0,0,1,.48-.47.41.41,0,0,1,.31.12l.24.23a3.33,3.33,0,0,0,2.39,1,3,3,0,0,0,2.24-.86.93.93,0,0,0,.24-.65.68.68,0,0,0-.5-.64Z" transform="translate(-392.26 -496.67)"/><path class="cls-1" d="M484.34,572.94a5.74,5.74,0,0,1-1.82,4.26,6,6,0,0,1-4.38,1.76,6.25,6.25,0,0,1-2.37-.46,6.91,6.91,0,0,1-2-1.3,6.58,6.58,0,0,1-1.34-2,5.88,5.88,0,0,1,1.34-6.55,6.12,6.12,0,0,1,4.39-1.76,6,6,0,0,1,4.38,1.76A5.72,5.72,0,0,1,484.34,572.94Zm-6.2-5.09a5.16,5.16,0,0,0-3.71,1.5,5,5,0,0,0,0,7.19,5.36,5.36,0,0,0,7.42,0,5,5,0,0,0,0-7.19A5.14,5.14,0,0,0,478.14,567.85Z" transform="translate(-392.26 -496.67)"/><path class="cls-1" d="M487.59,582.1a.45.45,0,0,1-.14.33.51.51,0,0,1-.68,0,.45.45,0,0,1-.14-.33v-7.35a4,4,0,0,1,1.27-3,4.45,4.45,0,0,1,6.14,0,4.12,4.12,0,0,1,0,6,4.42,4.42,0,0,1-6.14,0l-.31-.29Zm0-7.35a3.1,3.1,0,0,0,1,2.31,3.46,3.46,0,0,0,4.78,0,3.22,3.22,0,0,0,0-4.63,3.46,3.46,0,0,0-4.78,0A3.11,3.11,0,0,0,487.59,574.75Z" transform="translate(-392.26 -496.67)"/><path class="cls-1" d="M504.41,577.14a.46.46,0,0,1,.34.14.45.45,0,0,1,.14.34.44.44,0,0,1-.12.32,4.43,4.43,0,0,1-5.9-.22,4.12,4.12,0,0,1,0-6,4.45,4.45,0,0,1,6.14,0,4,4,0,0,1,1.27,3,.45.45,0,0,1-.14.33.47.47,0,0,1-.34.13h-7.22a3.49,3.49,0,0,0,1,1.85,3.31,3.31,0,0,0,2.39,1,3.32,3.32,0,0,0,2.17-.77A.48.48,0,0,1,504.41,577.14Zm.89-2.86a3.46,3.46,0,0,0-1-1.85,3.46,3.46,0,0,0-4.78,0,3.49,3.49,0,0,0-1,1.85Z" transform="translate(-392.26 -496.67)"/><path class="cls-1" d="M508.58,571a.42.42,0,0,1,.14-.33.45.45,0,0,1,.34-.13.48.48,0,0,1,.34.13.45.45,0,0,1,.14.33v.87a4.4,4.4,0,0,1,3.05-1.33,3.91,3.91,0,0,1,2.84,1.14,3.68,3.68,0,0,1,1.18,2.76v4a.42.42,0,0,1-.14.33.49.49,0,0,1-.34.14.5.5,0,0,1-.35-.14.45.45,0,0,1-.14-.33v-4a2.74,2.74,0,0,0-.89-2.09,3.09,3.09,0,0,0-4.32,0,2.77,2.77,0,0,0-.89,2.09v4a.45.45,0,0,1-.14.33.49.49,0,0,1-.34.14.46.46,0,0,1-.34-.14.42.42,0,0,1-.14-.33Z" transform="translate(-392.26 -496.67)"/><path class="cls-1" d="M523.5,577.05a.46.46,0,0,1,.48-.46.49.49,0,0,1,.41.21c.06.09.14.19.23.3a2.69,2.69,0,0,0,2.08.93,2.66,2.66,0,0,0,1.73-.62,3.09,3.09,0,0,0,.69-.83,2.45,2.45,0,0,0,.27-1.2,2.68,2.68,0,0,0-1.47-2.3,2.67,2.67,0,0,0-1-.28,3.25,3.25,0,0,1-2.07-1,3.29,3.29,0,0,1-.52-.88,2.6,2.6,0,0,1-.19-1,2.85,2.85,0,0,1,1.06-2.27,3,3,0,0,1,2-.7,3.07,3.07,0,0,1,2.3,1,2.7,2.7,0,0,1,.29.4.44.44,0,0,1,.07.26.46.46,0,0,1-.47.45A.38.38,0,0,1,529,569c-.08-.11-.18-.23-.3-.37a2,2,0,0,0-1.41-.72,2.19,2.19,0,0,0-1.51.48,1.88,1.88,0,0,0-.72,1.35,2,2,0,0,0,1.12,2,2.37,2.37,0,0,0,.77.21,3.88,3.88,0,0,1,2.5,1.24,4,4,0,0,1,.64,1.06,3.24,3.24,0,0,1,.22,1.18A3.49,3.49,0,0,1,530,577a3.74,3.74,0,0,1-.93,1.1,3.62,3.62,0,0,1-2.34.85,3.74,3.74,0,0,1-2.82-1.26,4.48,4.48,0,0,1-.29-.36A.51.51,0,0,1,523.5,577.05Z" transform="translate(-392.26 -496.67)"/><path class="cls-1" d="M541.45,574.75a4,4,0,0,1-1.27,3,4.42,4.42,0,0,1-6.14,0,4.12,4.12,0,0,1,0-6,4.45,4.45,0,0,1,6.14,0A4,4,0,0,1,541.45,574.75Zm-4.34-3.28a3.31,3.31,0,0,0-2.39,1,3.2,3.2,0,0,0,0,4.63,3.46,3.46,0,0,0,4.78,0,3.22,3.22,0,0,0,0-4.63A3.33,3.33,0,0,0,537.11,571.47Z" transform="translate(-392.26 -496.67)"/><path class="cls-1" d="M551.78,578.49a.45.45,0,0,1-.14.33.5.5,0,0,1-.35.14.49.49,0,0,1-.34-.14.45.45,0,0,1-.14-.33v-.87a4.42,4.42,0,0,1-3,1.34,4,4,0,0,1-2.85-1.14,3.72,3.72,0,0,1-1.17-2.77v-4a.45.45,0,0,1,.14-.33.48.48,0,0,1,.34-.13.49.49,0,0,1,.35.13.45.45,0,0,1,.14.33v4a2.77,2.77,0,0,0,.89,2.1,3,3,0,0,0,2.16.87,3,3,0,0,0,2.15-.87,2.78,2.78,0,0,0,.9-2.1v-4a.45.45,0,0,1,.14-.33.48.48,0,0,1,.34-.13.49.49,0,0,1,.35.13.45.45,0,0,1,.14.33Z" transform="translate(-392.26 -496.67)"/><path class="cls-1" d="M554.11,571a.45.45,0,0,1,.14-.33.51.51,0,0,1,.68,0,.45.45,0,0,1,.14.33v1.06a4.79,4.79,0,0,1,3.38-1.52,4.15,4.15,0,0,1,1.66.29.64.64,0,0,1,.22.14.48.48,0,0,1,0,.66.5.5,0,0,1-.35.14.46.46,0,0,1-.21,0,3.08,3.08,0,0,0-1.32-.25,3.31,3.31,0,0,0-2.39,1,3.11,3.11,0,0,0-1,2.32v3.74a.45.45,0,0,1-.14.33.48.48,0,0,1-.68,0,.45.45,0,0,1-.14-.33Z" transform="translate(-392.26 -496.67)"/><path class="cls-1" d="M569.41,577.13a.46.46,0,0,1,.34.14.42.42,0,0,1,.14.33.45.45,0,0,1-.15.34,4.06,4.06,0,0,1-1.31.75,4.4,4.4,0,0,1-4.58-1,4.1,4.1,0,0,1,0-6,4.24,4.24,0,0,1,3.07-1.23,4.3,4.3,0,0,1,1.52.26,4,4,0,0,1,1.3.75.52.52,0,0,1,.12.17.36.36,0,0,1,.06.2.45.45,0,0,1-.14.33.5.5,0,0,1-.35.14.45.45,0,0,1-.31-.12,3.44,3.44,0,0,0-4.59.16,3.2,3.2,0,0,0,0,4.63,3.31,3.31,0,0,0,2.39,1,3.41,3.41,0,0,0,1.18-.21,3.68,3.68,0,0,0,1-.59A.48.48,0,0,1,569.41,577.13Z" transform="translate(-392.26 -496.67)"/><path class="cls-1" d="M579.12,577.14a.48.48,0,0,1,.34.14.49.49,0,0,1,.14.34.41.41,0,0,1-.13.32,4.43,4.43,0,0,1-5.9-.22,4.12,4.12,0,0,1,0-6,4.45,4.45,0,0,1,6.14,0,4,4,0,0,1,1.28,3,.45.45,0,0,1-.14.33.49.49,0,0,1-.35.13h-7.22a3.5,3.5,0,0,0,1,1.85,3.29,3.29,0,0,0,2.38,1,3.21,3.21,0,0,0,1.18-.2,3.16,3.16,0,0,0,1-.57A.49.49,0,0,1,579.12,577.14Zm.88-2.86a3.39,3.39,0,0,0-1-1.85,3.44,3.44,0,0,0-4.77,0,3.5,3.5,0,0,0-1,1.85Z" transform="translate(-392.26 -496.67)"/><path class="cls-1" d="M597.6,576.84a.46.46,0,0,1,.34.14.42.42,0,0,1,.14.33.47.47,0,0,1-.11.31,6.77,6.77,0,0,1-1.85,1,6.15,6.15,0,0,1-2.06.35,6.25,6.25,0,0,1-2.37-.46,6.91,6.91,0,0,1-2-1.3,6.58,6.58,0,0,1-1.34-2,5.88,5.88,0,0,1,1.34-6.55,6.36,6.36,0,0,1,8.32-.4.48.48,0,0,1,.14.34.46.46,0,0,1-.47.45.58.58,0,0,1-.4-.18,5,5,0,0,0-3.2-1,5.13,5.13,0,0,0-3.71,1.5,5,5,0,0,0,0,7.19,5.38,5.38,0,0,0,7,.37A.46.46,0,0,1,597.6,576.84Z" transform="translate(-392.26 -496.67)"/><path class="cls-1" d="M609.06,574.75a4,4,0,0,1-1.27,3,4.42,4.42,0,0,1-6.14,0,4.12,4.12,0,0,1,0-6,4.45,4.45,0,0,1,6.14,0A4,4,0,0,1,609.06,574.75Zm-4.34-3.28a3.31,3.31,0,0,0-2.39,1,3.2,3.2,0,0,0,0,4.63,3.46,3.46,0,0,0,4.78,0,3.22,3.22,0,0,0,0-4.63A3.31,3.31,0,0,0,604.72,571.47Z" transform="translate(-392.26 -496.67)"/><path class="cls-1" d="M611.36,571a.42.42,0,0,1,.14-.33.45.45,0,0,1,.34-.13.48.48,0,0,1,.34.13.45.45,0,0,1,.14.33v.87a4.4,4.4,0,0,1,3-1.33,3.91,3.91,0,0,1,2.84,1.14,3.68,3.68,0,0,1,1.18,2.76v4a.42.42,0,0,1-.14.33.49.49,0,0,1-.34.14.5.5,0,0,1-.35-.14.45.45,0,0,1-.14-.33v-4a2.74,2.74,0,0,0-.89-2.09,3.09,3.09,0,0,0-4.32,0,2.77,2.77,0,0,0-.89,2.09v4a.45.45,0,0,1-.14.33.49.49,0,0,1-.34.14.46.46,0,0,1-.34-.14.42.42,0,0,1-.14-.33Z" transform="translate(-392.26 -496.67)"/><path class="cls-1" d="M626.39,566.93a.48.48,0,0,1,.34.13.45.45,0,0,1,.14.33.48.48,0,0,1-.48.48c-1.83,0-2.74.88-2.74,2.64V571h2.1a.46.46,0,0,1,.34.14.46.46,0,0,1,0,.66.42.42,0,0,1-.34.14h-2.1v6.55a.45.45,0,0,1-.14.33.48.48,0,0,1-.68,0,.43.43,0,0,1-.15-.33v-6.55h-.8a.44.44,0,0,1-.34-.14.46.46,0,0,1,0-.66.48.48,0,0,1,.34-.14h.8v-.49Q622.68,566.92,626.39,566.93Z" transform="translate(-392.26 -496.67)"/><path class="cls-1" d="M635.43,577.14a.46.46,0,0,1,.34.14.45.45,0,0,1,.14.34.44.44,0,0,1-.12.32,4.43,4.43,0,0,1-5.9-.22,4.12,4.12,0,0,1,0-6,4.45,4.45,0,0,1,6.14,0,4,4,0,0,1,1.27,3,.42.42,0,0,1-.14.33.45.45,0,0,1-.34.13H629.6a3.49,3.49,0,0,0,1,1.85,3.31,3.31,0,0,0,2.39,1,3.21,3.21,0,0,0,1.18-.2,3.27,3.27,0,0,0,1-.57A.48.48,0,0,1,635.43,577.14Zm.89-2.86a3.46,3.46,0,0,0-1-1.85,3.46,3.46,0,0,0-4.78,0,3.49,3.49,0,0,0-1,1.85Z" transform="translate(-392.26 -496.67)"/><path class="cls-1" d="M639.61,571a.45.45,0,0,1,.14-.33.48.48,0,0,1,.34-.13.45.45,0,0,1,.34.13.42.42,0,0,1,.14.33v1.06a4.79,4.79,0,0,1,3.38-1.52,4.15,4.15,0,0,1,1.66.29.79.79,0,0,1,.23.14.49.49,0,0,1,.13.33.45.45,0,0,1-.14.33.48.48,0,0,1-.34.14.51.51,0,0,1-.22,0,3.08,3.08,0,0,0-1.32-.25,3.29,3.29,0,0,0-2.38,1,3.08,3.08,0,0,0-1,2.32v3.74a.42.42,0,0,1-.14.33.46.46,0,0,1-.34.14.49.49,0,0,1-.34-.14.45.45,0,0,1-.14-.33Z" transform="translate(-392.26 -496.67)"/><path class="cls-1" d="M654.89,577.14a.46.46,0,0,1,.34.14.45.45,0,0,1,.14.34.44.44,0,0,1-.12.32,4.43,4.43,0,0,1-5.9-.22,4.12,4.12,0,0,1,0-6,4.45,4.45,0,0,1,6.14,0,4,4,0,0,1,1.27,3,.45.45,0,0,1-.14.33.47.47,0,0,1-.34.13h-7.22a3.49,3.49,0,0,0,1,1.85,3.31,3.31,0,0,0,2.39,1,3.32,3.32,0,0,0,2.17-.77A.48.48,0,0,1,654.89,577.14Zm.89-2.86a3.46,3.46,0,0,0-1-1.85,3.46,3.46,0,0,0-4.78,0,3.49,3.49,0,0,0-1,1.85Z" transform="translate(-392.26 -496.67)"/><path class="cls-1" d="M659.06,571a.44.44,0,0,1,.13-.33.49.49,0,0,1,.35-.13.48.48,0,0,1,.34.13.45.45,0,0,1,.14.33v.87a4.39,4.39,0,0,1,3.05-1.33,3.91,3.91,0,0,1,2.84,1.14,3.68,3.68,0,0,1,1.18,2.76v4a.42.42,0,0,1-.14.33.5.5,0,0,1-.35.14.49.49,0,0,1-.34-.14.45.45,0,0,1-.14-.33v-4a2.77,2.77,0,0,0-.89-2.09,3.09,3.09,0,0,0-4.32,0,2.77,2.77,0,0,0-.89,2.09v4a.45.45,0,0,1-.14.33.49.49,0,0,1-.34.14.5.5,0,0,1-.35-.14.44.44,0,0,1-.13-.33Z" transform="translate(-392.26 -496.67)"/><path class="cls-1" d="M676.23,577.13a.46.46,0,0,1,.34.14.42.42,0,0,1,.14.33.48.48,0,0,1-.14.34,4.46,4.46,0,0,1-2.83,1,4.23,4.23,0,0,1-3.07-1.24,4.12,4.12,0,0,1,0-6,4.48,4.48,0,0,1,4.59-1,4.17,4.17,0,0,1,1.31.75,1.25,1.25,0,0,1,.12.17.45.45,0,0,1-.09.53.48.48,0,0,1-.34.14.41.41,0,0,1-.31-.12,3.45,3.45,0,0,0-4.6.16,3.22,3.22,0,0,0,0,4.63,3.31,3.31,0,0,0,2.39,1,3.37,3.37,0,0,0,1.18-.21,3.89,3.89,0,0,0,1-.59A.43.43,0,0,1,676.23,577.13Z" transform="translate(-392.26 -496.67)"/><path class="cls-1" d="M685.94,577.14a.48.48,0,0,1,.34.14.49.49,0,0,1,.14.34.44.44,0,0,1-.12.32,4.26,4.26,0,0,1-2.83,1,4.21,4.21,0,0,1-3.07-1.24,4.12,4.12,0,0,1,0-6,4.45,4.45,0,0,1,6.14,0,4,4,0,0,1,1.27,3,.45.45,0,0,1-.14.33.48.48,0,0,1-.34.13H680.1a3.5,3.5,0,0,0,1,1.85,3.31,3.31,0,0,0,2.39,1,3.37,3.37,0,0,0,2.17-.77A.46.46,0,0,1,685.94,577.14Zm.88-2.86a3.33,3.33,0,0,0-1-1.85,3.44,3.44,0,0,0-4.77,0,3.5,3.5,0,0,0-1,1.85Z" transform="translate(-392.26 -496.67)"/></svg>