<svg id="图层_1" data-name="图层 1" xmlns="http://www.w3.org/2000/svg" viewBox="0 0 32 32"><defs><style>.cls-1{fill:#fff;}</style></defs><title>logo_twitter</title><path class="cls-1" d="M540,524a16,16,0,1,0,16,16A16,16,0,0,0,540,524Zm0,31a15,15,0,1,1,15-15A15,15,0,0,1,540,555Z" transform="translate(-524 -524)"/><path class="cls-1" d="M548.38,535.81a6.64,6.64,0,0,1-1.88.52,3.26,3.26,0,0,0,1.44-1.82,6.51,6.51,0,0,1-2.09.79,3.29,3.29,0,0,0-5.68,2.25,3.08,3.08,0,0,0,.08.75,9.33,9.33,0,0,1-6.78-3.43,3.31,3.31,0,0,0,1,4.39,3.38,3.38,0,0,1-1.49-.41v0a3.28,3.28,0,0,0,2.64,3.22,3.15,3.15,0,0,1-.87.12,3.26,3.26,0,0,1-.62-.06,3.28,3.28,0,0,0,3.07,2.28,6.59,6.59,0,0,1-4.08,1.41,6.68,6.68,0,0,1-.78,0,9.36,9.36,0,0,0,14.39-7.88c0-.15,0-.29,0-.43a6.47,6.47,0,0,0,1.64-1.7" transform="translate(-524 -524)"/></svg>