<svg id="图层_1" data-name="图层 1" xmlns="http://www.w3.org/2000/svg" viewBox="0 0 32 32"><defs><style>.cls-1{fill:#fff;}</style></defs><title>未标题-1</title><path class="cls-1" d="M540,524a16,16,0,1,0,16,16A16,16,0,0,0,540,524Zm0,31a15,15,0,1,1,15-15A15,15,0,0,1,540,555Z" transform="translate(-524 -524)"/><path class="cls-1" d="M549,535.7c-3.51-.53-7-1.09-10.48-1.66a1.7,1.7,0,0,0-.71,0c-2.11.61-4.26,1.17-6.37,1.77-.26.08-.34.15-.34.38v8.29c0,.11,0,.19.19.23,2,.3,4,.64,6,.94a4.45,4.45,0,0,0,1,.11c1.21-.11,2.41-.26,3.62-.38,2.33-.26,4.63-.49,6.93-.71.26,0,.3-.12.3-.3v-4.19c0-1.39,0-2.78,0-4.22C549.28,535.81,549.24,535.74,549,535.7Zm-10.93,4.18v4.94c0,.19,0,.26-.3.22l-5.69-.9c-.23,0-.26-.11-.26-.26v-7.24c0-.15.07-.22.26-.3l5.69-1.58c.34-.08.34-.08.34.19C538.09,536.61,538.09,538.23,538.09,539.88Zm10.4,3.73c0,.23-.08.3-.38.34l-5.5.57c-1.17.11-2.33.22-3.46.37-.23,0-.31,0-.31-.22v-9.5c0-.22,0-.3.34-.26,3,.49,6,.94,8.93,1.39.27,0,.38.12.38.38Z" transform="translate(-524 -524)"/><path class="cls-1" d="M541.86,540.6c-.42-.15-.87-.26-1.28-.42-.19,0-.3-.56-.15-.64a.36.36,0,0,1,.18,0l1.93.68c.11,0,.22.12.18.23s.08.34-.15.45c-.71.3-1.43.57-2.14.87-.15.07-.19,0-.19-.12,0-.45,0-.45.49-.64l1-.37Z" transform="translate(-524 -524)"/><path class="cls-1" d="M544.57,542.52H545c.15,0,.34-.08.34.15s0,.3-.31.3c-.64,0-1.28,0-2,.08-.12,0-.27,0-.23-.15s0-.3.23-.3c.52,0,1-.08,1.54-.08Z" transform="translate(-524 -524)"/><path class="cls-1" d="M533.27,542.86c-.19,0-.38-.23-.3-.38,1.09-1.62,2.18-3.24,3.27-4.82,0-.08.08-.19.23-.11s.38.11.23.3c-.42.6-.83,1.24-1.25,1.84-.68,1-1.32,2-2,2.94C533.38,542.75,533.34,542.82,533.27,542.86Z" transform="translate(-524 -524)"/><path class="cls-1" d="M534.59,543.39c-.19,0-.38-.27-.27-.38.79-1.17,1.59-2.3,2.38-3.47,0-.07.07-.18.18-.07s.38.11.23.34-.49.68-.72,1.05c-.56.79-1.09,1.62-1.65,2.41C534.7,543.31,534.7,543.39,534.59,543.39Z" transform="translate(-524 -524)"/><path class="cls-1" d="M532.89,541a.29.29,0,0,1-.26-.38c.79-1.13,1.58-2.3,2.37-3.43,0-.07.08-.19.23-.11s.34.11.22.34-.34.49-.52.75c-.61.9-1.25,1.81-1.85,2.67C533,540.9,533,541,532.89,541Z" transform="translate(-524 -524)"/><path class="cls-1" d="M533.83,536.45c.19,0,.34.27.27.38L532.59,539c0,.07-.08.18-.23.07s-.34-.11-.22-.3a4.21,4.21,0,0,1,.41-.56c.38-.57.76-1.1,1.13-1.66C533.72,536.53,533.76,536.45,533.83,536.45Z" transform="translate(-524 -524)"/><path class="cls-1" d="M537.6,541.47a.17.17,0,0,0-.07.15c-.49.71-1,1.43-1.51,2.14,0,.08-.08.23-.19.12s-.38-.12-.23-.3l1.59-2.27s.07-.11.15-.07A.45.45,0,0,1,537.6,541.47Z" transform="translate(-524 -524)"/></svg>