<svg id="图层_1" data-name="图层 1" xmlns="http://www.w3.org/2000/svg" viewBox="0 0 138 40.11"><defs><style>.cls-1{fill:#fff;}</style></defs><title>Logo_full</title><circle class="cls-1" cx="122.07" cy="14.53" r="0.56"/><path class="cls-1" d="M736.07,540.3a.79.79,0,1,1,.79-.79A.79.79,0,0,1,736.07,540.3Zm0-1.11a.32.32,0,1,0,.33.32A.32.32,0,0,0,736.07,539.19Z" transform="translate(-614 -524.97)"/><path class="cls-1" d="M620.15,549a8.78,8.78,0,0,1-4-1.63,5.66,5.66,0,0,1-1.48-1.61,3.26,3.26,0,0,1-.46-2.06l.44,0a.68.68,0,0,1,.48.13,3.55,3.55,0,0,0,1,2.3,6.13,6.13,0,0,0,2.16,1.41,8.78,8.78,0,0,0,2.67.58,7.33,7.33,0,0,0,2.46-.2,8.44,8.44,0,0,0,2.49-1.1,3.83,3.83,0,0,0,1.64-2.08,3.09,3.09,0,0,0-.14-2.3,4.68,4.68,0,0,0-1.54-1.83,5.94,5.94,0,0,0-1.35-.73,7.73,7.73,0,0,0-1.41-.38,13.58,13.58,0,0,0-1.48-.19l-1.53-.12a6,6,0,0,1-2-.5,10.22,10.22,0,0,1-1.81-1,7.22,7.22,0,0,1-1.34-1.41,3.34,3.34,0,0,1-.67-1.77,4.17,4.17,0,0,1,.25-2,5.4,5.4,0,0,1,1-1.63,6,6,0,0,1,1.56-1.2,9.13,9.13,0,0,1,1.88-.79,10.28,10.28,0,0,1,2.36-.27,9.76,9.76,0,0,1,2.63.31,8.58,8.58,0,0,1,2.39,1,4.44,4.44,0,0,1,1.65,1.74,6.06,6.06,0,0,1,.53,1,2.27,2.27,0,0,1,.16,1.17h-.91a4.44,4.44,0,0,0-.73-1.92,4.25,4.25,0,0,0-1.54-1.37,9.47,9.47,0,0,0-1.55-.69,4.81,4.81,0,0,0-1.66-.3,11.86,11.86,0,0,0-3.46.37,5.89,5.89,0,0,0-2.9,1.9,2.93,2.93,0,0,0-.62,1.15,3,3,0,0,0-.11,1.26,3.59,3.59,0,0,0,.71,1.77,4.24,4.24,0,0,0,1.44,1.27c.39.19.79.37,1.21.53a11.74,11.74,0,0,0,1.24.38,1,1,0,0,1,.24,0l.24,0q1.2.15,2.34.24a8.58,8.58,0,0,1,2.3.53,6.73,6.73,0,0,1,2.36,1.57,4.66,4.66,0,0,1,1.2,2.14,4.24,4.24,0,0,1-.15,2.38,5.34,5.34,0,0,1-1.66,2.28,6.59,6.59,0,0,1-3.09,1.5A9.84,9.84,0,0,1,620.15,549Z" transform="translate(-614 -524.97)"/><path class="cls-1" d="M621.53,549.3a9.13,9.13,0,0,1-1.4-.11,9,9,0,0,1-4.1-1.66,5.75,5.75,0,0,1-1.53-1.66,3.39,3.39,0,0,1-.48-2.17v-.16h.59a.85.85,0,0,1,.6.16l.06,0v.07a3.43,3.43,0,0,0,1,2.2,5.74,5.74,0,0,0,2.09,1.36A8.47,8.47,0,0,0,621,548a7.31,7.31,0,0,0,2.41-.2,8.28,8.28,0,0,0,2.43-1.07,3.73,3.73,0,0,0,1.58-2,3,3,0,0,0-.14-2.18,4.56,4.56,0,0,0-1.48-1.76,5.78,5.78,0,0,0-1.31-.71,8.53,8.53,0,0,0-1.38-.37,13.54,13.54,0,0,0-1.46-.18l-1.54-.13a6.18,6.18,0,0,1-2-.51,9.64,9.64,0,0,1-1.84-1,7.34,7.34,0,0,1-1.38-1.45,3.57,3.57,0,0,1-.71-1.86,4.53,4.53,0,0,1,.27-2.09,5.56,5.56,0,0,1,1.06-1.68,6.53,6.53,0,0,1,1.59-1.24,10.11,10.11,0,0,1,1.92-.8,10.78,10.78,0,0,1,2.41-.28,9.62,9.62,0,0,1,2.67.32,8.52,8.52,0,0,1,2.44,1,4.63,4.63,0,0,1,1.71,1.81,5.47,5.47,0,0,1,.54,1,2.52,2.52,0,0,1,.18,1.26l0,.16h-1.22l0-.16a4.32,4.32,0,0,0-.71-1.84,4.08,4.08,0,0,0-1.47-1.32,10.59,10.59,0,0,0-1.53-.68,4.73,4.73,0,0,0-1.6-.28,11.13,11.13,0,0,0-3.41.36,5.64,5.64,0,0,0-2.82,1.85,2.92,2.92,0,0,0-.59,1.08,3,3,0,0,0-.1,1.19,3.54,3.54,0,0,0,.68,1.69,4.07,4.07,0,0,0,1.38,1.21,11.56,11.56,0,0,0,1.19.52,10,10,0,0,0,1.22.38,1.07,1.07,0,0,1,.24,0l.2,0c.81.1,1.6.18,2.35.24a8.49,8.49,0,0,1,2.35.54,6.89,6.89,0,0,1,2.42,1.61,4.88,4.88,0,0,1,1.25,2.22,4.37,4.37,0,0,1-.15,2.47,5.57,5.57,0,0,1-1.71,2.36,6.74,6.74,0,0,1-3.17,1.54A11.13,11.13,0,0,1,621.53,549.3Zm-7.17-5.41a3,3,0,0,0,.44,1.8,5.44,5.44,0,0,0,1.43,1.56,8.4,8.4,0,0,0,1.95,1.07,7.94,7.94,0,0,0,2,.52h0a9.74,9.74,0,0,0,3.39-.1,6.44,6.44,0,0,0,3-1.46,5.25,5.25,0,0,0,1.61-2.21,4.07,4.07,0,0,0,.14-2.28,4.56,4.56,0,0,0-1.16-2.06,6.66,6.66,0,0,0-2.3-1.53,8.42,8.42,0,0,0-2.25-.52c-.75-.06-1.54-.14-2.34-.23l-.26,0-.2,0a8.92,8.92,0,0,1-1.3-.39,12.36,12.36,0,0,1-1.23-.54,4.25,4.25,0,0,1-1.5-1.31,3.91,3.91,0,0,1-.75-1.86,3.38,3.38,0,0,1,.12-1.33,3.23,3.23,0,0,1,.65-1.21,6.09,6.09,0,0,1,3-2,11.76,11.76,0,0,1,3.5-.37h0a5.19,5.19,0,0,1,1.72.3,11.87,11.87,0,0,1,1.58.71,4.51,4.51,0,0,1,2.33,3.27h.6a2.18,2.18,0,0,0-.16-.93,5.82,5.82,0,0,0-.52-1,4.27,4.27,0,0,0-1.59-1.68,8.23,8.23,0,0,0-2.34-1,9.87,9.87,0,0,0-2.59-.31,10,10,0,0,0-2.32.27,9.55,9.55,0,0,0-1.84.77,6.23,6.23,0,0,0-1.51,1.17,5.35,5.35,0,0,0-1,1.57,4.09,4.09,0,0,0-.24,1.93,3.29,3.29,0,0,0,.64,1.69,7.44,7.44,0,0,0,1.31,1.37,9.69,9.69,0,0,0,1.76,1,6.07,6.07,0,0,0,1.94.48l1.53.13q.78.06,1.5.18a8.1,8.1,0,0,1,1.44.4,5.71,5.71,0,0,1,1.39.75,4.85,4.85,0,0,1,1.6,1.89,3.34,3.34,0,0,1,.15,2.43A4,4,0,0,1,626,547a8.71,8.71,0,0,1-2.53,1.12,7.72,7.72,0,0,1-2.53.21,9.19,9.19,0,0,1-2.72-.6,6.2,6.2,0,0,1-2.21-1.45,3.7,3.7,0,0,1-1-2.32.56.56,0,0,0-.3-.06Z" transform="translate(-614 -524.97)"/><path class="cls-1" d="M640.57,548.94a8.72,8.72,0,0,1-2.36-.78,10,10,0,0,1-2.11-1.41,10.94,10.94,0,0,1-1.72-1.88,9.47,9.47,0,0,1-1.19-2.21,10.79,10.79,0,0,1-.68-3.57,10.13,10.13,0,0,1,4.44-8.51,11.21,11.21,0,0,1,3.07-1.43,10.58,10.58,0,0,1,3.59-.38,8,8,0,0,1,2.63.58,14.88,14.88,0,0,1,2.37,1.25,9.55,9.55,0,0,1,2.07,1.93,13.38,13.38,0,0,1,1.48,2.42,7.86,7.86,0,0,1,.67,2.5,16.26,16.26,0,0,1,.06,2.61,5.06,5.06,0,0,1-.2,1.41c-.14.45-.29.88-.46,1.3a9.17,9.17,0,0,1-1.88,3.07,10.3,10.3,0,0,1-2.8,2.12,11.24,11.24,0,0,1-3.38,1.08A10.14,10.14,0,0,1,640.57,548.94Zm.7-.84a8.19,8.19,0,0,0,3.12,0A9.89,9.89,0,0,0,647.3,547a9,9,0,0,0,2.79-2.35,9.11,9.11,0,0,0,1.54-3,9.58,9.58,0,0,0,.33-3.29,9.63,9.63,0,0,0-2.76-6,9.51,9.51,0,0,0-3-2,9.29,9.29,0,0,0-2.32-.6,8.51,8.51,0,0,0-2.47,0,8.88,8.88,0,0,0-4.36,1.92,9.67,9.67,0,0,0-2.78,3.6,9.35,9.35,0,0,0-.79,4.47,8.67,8.67,0,0,0,1.65,4.52,8.52,8.52,0,0,0,2.66,2.55A9.26,9.26,0,0,0,641.27,548.1Z" transform="translate(-614 -524.97)"/><path class="cls-1" d="M642.63,549.33a10.51,10.51,0,0,1-2.09-.21,9.28,9.28,0,0,1-2.4-.8,10.17,10.17,0,0,1-2.16-1.44,10.88,10.88,0,0,1-1.74-1.91,9.25,9.25,0,0,1-1.21-2.25,10.64,10.64,0,0,1-.69-3.62,10.17,10.17,0,0,1,2.08-6.36,10.11,10.11,0,0,1,2.44-2.31A11.34,11.34,0,0,1,640,529a10.46,10.46,0,0,1,3.65-.39,8.29,8.29,0,0,1,2.68.59,15.33,15.33,0,0,1,2.41,1.26,9.74,9.74,0,0,1,2.11,2,13.29,13.29,0,0,1,1.5,2.44,8.25,8.25,0,0,1,.69,2.56,17.88,17.88,0,0,1,0,2.64,5.46,5.46,0,0,1-.2,1.45c-.14.45-.3.9-.47,1.31a9.35,9.35,0,0,1-1.91,3.13,10.24,10.24,0,0,1-2.85,2.15,11.12,11.12,0,0,1-3.43,1.1A10.38,10.38,0,0,1,642.63,549.33Zm.3-20.4a10.29,10.29,0,0,0-2.86.39,11.26,11.26,0,0,0-3,1.4A10,10,0,0,0,634.7,533a9.84,9.84,0,0,0-2,6.14,10.42,10.42,0,0,0,.66,3.51,9.51,9.51,0,0,0,1.17,2.17,11,11,0,0,0,1.69,1.85,9.64,9.64,0,0,0,2.08,1.38,8.72,8.72,0,0,0,2.31.77h0a10,10,0,0,0,3.54.09,10.67,10.67,0,0,0,3.32-1.06,9.74,9.74,0,0,0,2.75-2.08,9.1,9.1,0,0,0,1.85-3q.25-.63.45-1.29a4.71,4.71,0,0,0,.19-1.36,17.18,17.18,0,0,0-.05-2.59A7.75,7.75,0,0,0,652,535a13,13,0,0,0-1.46-2.38,9.45,9.45,0,0,0-2-1.9,14,14,0,0,0-2.34-1.22,7.89,7.89,0,0,0-2.57-.58Zm-.16,19.49a8.62,8.62,0,0,1-1.53-.14A9.6,9.6,0,0,1,637.7,547a8.68,8.68,0,0,1-2.72-2.61,8.84,8.84,0,0,1-1.67-4.6,9.62,9.62,0,0,1,.8-4.56,10.08,10.08,0,0,1,2.82-3.66,9.15,9.15,0,0,1,7-2,9.7,9.7,0,0,1,2.37.62,9.56,9.56,0,0,1,3.05,2.07,9.67,9.67,0,0,1,2.81,6.12,9.68,9.68,0,0,1-.33,3.35,9.12,9.12,0,0,1-4.42,5.48,10.16,10.16,0,0,1-3,1.06A8.56,8.56,0,0,1,642.77,548.42Zm-.07-18.58a8.75,8.75,0,0,0-5.54,2,9.63,9.63,0,0,0-2.73,3.54,9.14,9.14,0,0,0-.77,4.39,8.41,8.41,0,0,0,1.61,4.43,8.6,8.6,0,0,0,2.62,2.51,9.18,9.18,0,0,0,3.4,1.25h0a7.88,7.88,0,0,0,3.06,0,9.38,9.38,0,0,0,2.85-1,8.72,8.72,0,0,0,4.25-5.27,9,9,0,0,0,.32-3.22,9.1,9.1,0,0,0-.81-3.16,8.93,8.93,0,0,0-7.11-5.33A9.14,9.14,0,0,0,642.7,529.84Z" transform="translate(-614 -524.97)"/><path class="cls-1" d="M662,549a8.48,8.48,0,0,1-2-.53,8.57,8.57,0,0,1-2-1.1,5.52,5.52,0,0,1-1.48-1.61,3.26,3.26,0,0,1-.46-2.06l.44,0a.66.66,0,0,1,.47.13,3.61,3.61,0,0,0,1,2.3,6.09,6.09,0,0,0,2.15,1.41,8.85,8.85,0,0,0,2.67.58,7.39,7.39,0,0,0,2.47-.2,8.55,8.55,0,0,0,2.49-1.1,3.83,3.83,0,0,0,1.64-2.08,3.14,3.14,0,0,0-.15-2.3,4.65,4.65,0,0,0-1.53-1.83,5.94,5.94,0,0,0-1.35-.73,8.2,8.2,0,0,0-1.41-.38,13.9,13.9,0,0,0-1.48-.19l-1.54-.12a6.13,6.13,0,0,1-2-.5,10.59,10.59,0,0,1-1.81-1,7.48,7.48,0,0,1-1.33-1.41,3.44,3.44,0,0,1-.68-1.77,4.17,4.17,0,0,1,.26-2,5.21,5.21,0,0,1,1-1.63,6,6,0,0,1,1.56-1.2,8.9,8.9,0,0,1,1.88-.79,10.26,10.26,0,0,1,2.35-.27,9.83,9.83,0,0,1,2.64.31,8.58,8.58,0,0,1,2.39,1,4.34,4.34,0,0,1,1.64,1.74,4.88,4.88,0,0,1,.53,1,2.28,2.28,0,0,1,.17,1.17h-.91a4.46,4.46,0,0,0-.74-1.92,4.3,4.3,0,0,0-1.53-1.37,10.29,10.29,0,0,0-1.55-.69,4.87,4.87,0,0,0-1.67-.3,11.76,11.76,0,0,0-3.45.37,6,6,0,0,0-2.91,1.9,3.07,3.07,0,0,0-.62,1.15,3.21,3.21,0,0,0-.11,1.26,3.61,3.61,0,0,0,.72,1.77,4.24,4.24,0,0,0,1.44,1.27c.39.19.79.37,1.21.53a11.06,11.06,0,0,0,1.24.38,1,1,0,0,1,.24,0l.23,0q1.22.15,2.34.24a8.49,8.49,0,0,1,2.3.53,6.55,6.55,0,0,1,2.36,1.57,4.68,4.68,0,0,1,1.21,2.14,4.24,4.24,0,0,1-.15,2.38,5.34,5.34,0,0,1-1.66,2.28,6.59,6.59,0,0,1-3.09,1.5A9.85,9.85,0,0,1,662,549Z" transform="translate(-614 -524.97)"/><path class="cls-1" d="M663.38,549.3a9.36,9.36,0,0,1-1.41-.11,8.28,8.28,0,0,1-2.06-.54,8.42,8.42,0,0,1-2-1.12,5.85,5.85,0,0,1-1.52-1.66,3.39,3.39,0,0,1-.48-2.17v-.16h.59a.81.81,0,0,1,.59.16l.06,0v.07a3.47,3.47,0,0,0,1,2.2,5.78,5.78,0,0,0,2.1,1.36,8.47,8.47,0,0,0,2.61.58,7.26,7.26,0,0,0,2.41-.2,8.22,8.22,0,0,0,2.44-1.07,3.66,3.66,0,0,0,1.57-2,2.93,2.93,0,0,0-.14-2.18,4.45,4.45,0,0,0-1.47-1.76,6.23,6.23,0,0,0-1.31-.71,8.82,8.82,0,0,0-1.38-.37,13.54,13.54,0,0,0-1.46-.18l-1.54-.13a6.18,6.18,0,0,1-2-.51,10.29,10.29,0,0,1-1.84-1,7.6,7.6,0,0,1-1.37-1.45,3.57,3.57,0,0,1-.71-1.86,4.28,4.28,0,0,1,.27-2.09,5.53,5.53,0,0,1,1-1.68,6.58,6.58,0,0,1,1.6-1.24,9.84,9.84,0,0,1,1.92-.8,10.69,10.69,0,0,1,2.4-.28,9.69,9.69,0,0,1,2.68.32,8.52,8.52,0,0,1,2.44,1,4.63,4.63,0,0,1,1.71,1.81,6.13,6.13,0,0,1,.54,1,2.41,2.41,0,0,1,.17,1.26l0,.16h-1.22l0-.16a4.3,4.3,0,0,0-.7-1.84,4.16,4.16,0,0,0-1.47-1.32,11.1,11.1,0,0,0-1.53-.68,4.75,4.75,0,0,0-1.61-.28,11.1,11.1,0,0,0-3.4.36,5.64,5.64,0,0,0-2.82,1.85,2.78,2.78,0,0,0-.59,1.08,3,3,0,0,0-.1,1.19,3.54,3.54,0,0,0,.68,1.69,4.07,4.07,0,0,0,1.38,1.21,11.56,11.56,0,0,0,1.19.52,9,9,0,0,0,1.22.38,1,1,0,0,1,.23,0l.2,0c.82.1,1.61.18,2.36.24a8.57,8.57,0,0,1,2.35.54,7,7,0,0,1,2.42,1.61,4.88,4.88,0,0,1,1.25,2.22,4.37,4.37,0,0,1-.15,2.47,5.51,5.51,0,0,1-1.72,2.36,6.7,6.7,0,0,1-3.16,1.54A11.13,11.13,0,0,1,663.38,549.3Zm-7.18-5.41a3.12,3.12,0,0,0,.45,1.8,5.3,5.3,0,0,0,1.43,1.56,8.2,8.2,0,0,0,1.95,1.07,7.72,7.72,0,0,0,2,.52h0a9.79,9.79,0,0,0,3.4-.1,6.4,6.4,0,0,0,3-1.46,5.19,5.19,0,0,0,1.62-2.21,4.16,4.16,0,0,0,.14-2.28,4.58,4.58,0,0,0-1.17-2.06,6.62,6.62,0,0,0-2.29-1.53,8.6,8.6,0,0,0-2.25-.52c-.76-.06-1.55-.14-2.35-.23l-.25,0-.2,0a9,9,0,0,1-1.31-.39,12.19,12.19,0,0,1-1.22-.54,4.37,4.37,0,0,1-1.51-1.31,4,4,0,0,1-.74-1.86,3.57,3.57,0,0,1,.11-1.33,3.11,3.11,0,0,1,.66-1.21,6.07,6.07,0,0,1,3-2,11.54,11.54,0,0,1,3.51-.37h0a5.19,5.19,0,0,1,1.72.3,11.2,11.2,0,0,1,1.57.71,4.4,4.4,0,0,1,1.6,1.42,4.77,4.77,0,0,1,.74,1.85h.6a2.19,2.19,0,0,0-.17-.93,5.19,5.19,0,0,0-.51-1,4.27,4.27,0,0,0-1.59-1.68,8.17,8.17,0,0,0-2.35-1,9.8,9.8,0,0,0-2.58-.31,10,10,0,0,0-2.32.27,9.3,9.3,0,0,0-1.84.77,6,6,0,0,0-1.51,1.17,5.35,5.35,0,0,0-1,1.57,4.09,4.09,0,0,0-.24,1.93,3.21,3.21,0,0,0,.64,1.69,7.4,7.4,0,0,0,1.3,1.37,9.78,9.78,0,0,0,1.77,1,6.07,6.07,0,0,0,1.94.48l1.53.13q.78.06,1.5.18a8.35,8.35,0,0,1,1.44.4,5.9,5.9,0,0,1,1.39.75,4.82,4.82,0,0,1,1.59,1.89,3.34,3.34,0,0,1,.16,2.43,4.08,4.08,0,0,1-1.72,2.18,8.77,8.77,0,0,1-2.54,1.12,7.66,7.66,0,0,1-2.52.21,9.19,9.19,0,0,1-2.72-.6,6.25,6.25,0,0,1-2.22-1.45,3.75,3.75,0,0,1-1-2.32.56.56,0,0,0-.3-.06Z" transform="translate(-614 -524.97)"/><path class="cls-1" d="M681.7,548.83a8.66,8.66,0,0,1-3.59-1.62,9.42,9.42,0,0,1-2.63-3,11.87,11.87,0,0,1-1.37-4,11.22,11.22,0,0,1,.17-4.17,10.55,10.55,0,0,1,1.7-3.76,9.83,9.83,0,0,1,3.19-2.87,8.77,8.77,0,0,1,4.06-1.19,10,10,0,0,1,7.57,2.93,9,9,0,0,1,2.23,3.63l-.11.08a1.06,1.06,0,0,0-.3.09l-.36.16h-.07a12.6,12.6,0,0,0-1.28-2.17,11.06,11.06,0,0,0-1.74-1.87,8.92,8.92,0,0,0-2.14-1.33,7,7,0,0,0-2.48-.58,8.23,8.23,0,0,0-4.11.73,12.22,12.22,0,0,0-3.35,2.55,6.21,6.21,0,0,0-1.3,2.09,17.68,17.68,0,0,0-.71,2.34,7.92,7.92,0,0,0-.16,2.32,11.93,11.93,0,0,0,.42,2.32,9.13,9.13,0,0,0,2.3,4,8.54,8.54,0,0,0,13.47-1.4c.37-.63.73-1.29,1.08-2l.07-.11.77.26s0,.12,0,.29-.11.35-.18.53-.15.36-.22.51a1.74,1.74,0,0,1-.15.28,11.47,11.47,0,0,1-2,2.52,10,10,0,0,1-2.54,1.77,9.66,9.66,0,0,1-3,.88A9.46,9.46,0,0,1,681.7,548.83Z" transform="translate(-614 -524.97)"/><path class="cls-1" d="M683.82,549.24a10.11,10.11,0,0,1-2.16-.23,8.92,8.92,0,0,1-3.65-1.66,9.44,9.44,0,0,1-2.68-3,11.88,11.88,0,0,1-1.39-4.09,11.37,11.37,0,0,1,.17-4.24,11.06,11.06,0,0,1,1.72-3.82,10.11,10.11,0,0,1,3.26-2.92,8.91,8.91,0,0,1,4.13-1.21,10.16,10.16,0,0,1,7.7,3,9.2,9.2,0,0,1,2.27,3.71l0,.13L693,535h-.05l-.23.08-.35.16-.08,0h-.19l0-.11a12.24,12.24,0,0,0-1.26-2.14,11,11,0,0,0-1.71-1.83,8.31,8.31,0,0,0-2.1-1.31,7,7,0,0,0-2.42-.57,8.27,8.27,0,0,0-4,.71,11.91,11.91,0,0,0-3.29,2.53,5.81,5.81,0,0,0-1.26,2,17.44,17.44,0,0,0-.71,2.32,7.89,7.89,0,0,0-.16,2.26,11.78,11.78,0,0,0,.42,2.29,9.05,9.05,0,0,0,2.25,3.91,8.54,8.54,0,0,0,11.79.36A9,9,0,0,0,691,544c.37-.61.73-1.27,1.07-2l.16-.25,1,.35c.09.09.07.23,0,.46s-.12.36-.19.55-.15.36-.22.52a1.08,1.08,0,0,1-.18.32,12,12,0,0,1-2,2.53,10.52,10.52,0,0,1-2.58,1.8,9.49,9.49,0,0,1-3,.89A8.77,8.77,0,0,1,683.82,549.24Zm-.13-20.87h-.45a8.69,8.69,0,0,0-4,1.16,9.73,9.73,0,0,0-3.14,2.82,10.57,10.57,0,0,0-1.67,3.7,10.89,10.89,0,0,0-.16,4.11,11.33,11.33,0,0,0,1.35,4,9.08,9.08,0,0,0,2.58,2.93,8.37,8.37,0,0,0,3.51,1.59h0a9.44,9.44,0,0,0,3.2.17,9.55,9.55,0,0,0,2.9-.87,9.69,9.69,0,0,0,2.5-1.74,11.41,11.41,0,0,0,2-2.48,1.65,1.65,0,0,0,.14-.26c.07-.16.14-.32.21-.5s.13-.35.18-.52a.36.36,0,0,0,0-.11l-.52-.18c-.33.69-.69,1.36-1.07,2a9.07,9.07,0,0,1-1.47,1.8,8.84,8.84,0,0,1-12.27-.36,9.41,9.41,0,0,1-2.35-4.06,12.5,12.5,0,0,1-.43-2.36,8.27,8.27,0,0,1,.17-2.37,17,17,0,0,1,.72-2.36A6.29,6.29,0,0,1,677,532.3a12.59,12.59,0,0,1,3.4-2.59,8.58,8.58,0,0,1,4.19-.75,7.27,7.27,0,0,1,2.55.6,8.88,8.88,0,0,1,2.18,1.36,11.33,11.33,0,0,1,1.77,1.89,12.22,12.22,0,0,1,1.23,2.08l.28-.12a1.11,1.11,0,0,1,.25-.09,8.67,8.67,0,0,0-2.14-3.43,9.72,9.72,0,0,0-7-2.88Z" transform="translate(-614 -524.97)"/><path class="cls-1" d="M704.4,548.94a8.61,8.61,0,0,1-2.36-.78,10,10,0,0,1-2.12-1.41,10.94,10.94,0,0,1-1.72-1.88,9.85,9.85,0,0,1-1.19-2.21,10.78,10.78,0,0,1-.67-3.57,10.2,10.2,0,0,1,.51-3.34,10,10,0,0,1,1.53-2.9,9.78,9.78,0,0,1,2.4-2.27,11.07,11.07,0,0,1,3.07-1.43,10.52,10.52,0,0,1,3.58-.38,8,8,0,0,1,2.63.58,15.42,15.42,0,0,1,2.38,1.25,9.49,9.49,0,0,1,2.06,1.93A12.84,12.84,0,0,1,716,535a7.88,7.88,0,0,1,.68,2.5,17.5,17.5,0,0,1,.05,2.61,4.71,4.71,0,0,1-.2,1.41,13.26,13.26,0,0,1-.45,1.3,9.2,9.2,0,0,1-1.89,3.07,10.26,10.26,0,0,1-2.79,2.12A11.43,11.43,0,0,1,708,549,10.13,10.13,0,0,1,704.4,548.94Zm.69-.84a8.24,8.24,0,0,0,3.13,0,9.83,9.83,0,0,0,2.9-1.05,8.78,8.78,0,0,0,4.33-5.37,9.12,9.12,0,0,0,.33-3.29,9.49,9.49,0,0,0-2.76-6,9.58,9.58,0,0,0-3-2,9.25,9.25,0,0,0-2.33-.6,8.44,8.44,0,0,0-2.46,0,8.91,8.91,0,0,0-4.37,1.92,9.78,9.78,0,0,0-2.78,3.6,9.35,9.35,0,0,0-.78,4.47,8.57,8.57,0,0,0,1.64,4.52,8.66,8.66,0,0,0,2.67,2.55A9.22,9.22,0,0,0,705.09,548.1Z" transform="translate(-614 -524.97)"/><path class="cls-1" d="M706.45,549.33a10.51,10.51,0,0,1-2.09-.21,9.41,9.41,0,0,1-2.4-.8,10.42,10.42,0,0,1-2.16-1.44,10.88,10.88,0,0,1-1.74-1.91,9.6,9.6,0,0,1-1.21-2.25,10.89,10.89,0,0,1-.69-3.62,10.17,10.17,0,0,1,2.08-6.36,10.11,10.11,0,0,1,2.44-2.31A11.25,11.25,0,0,1,703.8,529a10.38,10.38,0,0,1,3.64-.39,8.35,8.35,0,0,1,2.69.59,15.68,15.68,0,0,1,2.4,1.26,9.74,9.74,0,0,1,2.11,2,12.77,12.77,0,0,1,1.5,2.44,8,8,0,0,1,.69,2.56,16.63,16.63,0,0,1,.06,2.64,5.09,5.09,0,0,1-.21,1.45,12.61,12.61,0,0,1-.46,1.31A9.37,9.37,0,0,1,714.3,546a10.2,10.2,0,0,1-2.84,2.15,11.17,11.17,0,0,1-3.44,1.1A10.28,10.28,0,0,1,706.45,549.33Zm.3-20.4a10.22,10.22,0,0,0-2.85.39,11,11,0,0,0-3,1.4,9.81,9.81,0,0,0-2.36,2.23,10,10,0,0,0-1.5,2.86,9.84,9.84,0,0,0-.51,3.28,10.44,10.44,0,0,0,.67,3.51,9.09,9.09,0,0,0,1.16,2.17,11,11,0,0,0,1.69,1.85,9.71,9.71,0,0,0,2.09,1.38,8.6,8.6,0,0,0,2.31.77h0a10,10,0,0,0,3.54.09,10.81,10.81,0,0,0,3.33-1.06,9.89,9.89,0,0,0,2.75-2.08,9.24,9.24,0,0,0,1.84-3q.25-.63.45-1.29a4.71,4.71,0,0,0,.2-1.36,16,16,0,0,0-.06-2.59,7.49,7.49,0,0,0-.66-2.45,12,12,0,0,0-1.46-2.38,9.4,9.4,0,0,0-2-1.9,14.86,14.86,0,0,0-2.34-1.22,8,8,0,0,0-2.58-.58Zm-.16,19.49a8.71,8.71,0,0,1-1.53-.14,9.48,9.48,0,0,1-3.53-1.31,8.58,8.58,0,0,1-2.72-2.61,8.74,8.74,0,0,1-1.68-4.6,9.62,9.62,0,0,1,.8-4.56,10,10,0,0,1,2.83-3.66,9.15,9.15,0,0,1,7-2,9.13,9.13,0,0,1,5.42,2.69,9.67,9.67,0,0,1,2.81,6.12,9.71,9.71,0,0,1-.34,3.35,9.29,9.29,0,0,1-1.56,3.07,9.12,9.12,0,0,1-2.85,2.41,10.22,10.22,0,0,1-3,1.06A8.56,8.56,0,0,1,706.59,548.42Zm-.07-18.58a8.9,8.9,0,0,0-1.26.09,8.77,8.77,0,0,0-4.28,1.88,9.74,9.74,0,0,0-2.73,3.54,9.38,9.38,0,0,0-.77,4.39,8.59,8.59,0,0,0,1.61,4.43,8.83,8.83,0,0,0,2.62,2.51,9.23,9.23,0,0,0,3.41,1.25h0a7.88,7.88,0,0,0,3.06,0,9.54,9.54,0,0,0,2.86-1,8.66,8.66,0,0,0,4.24-5.27,9.19,9.19,0,0,0,.33-3.22,9.57,9.57,0,0,0-.81-3.16,8.92,8.92,0,0,0-7.12-5.33A9,9,0,0,0,706.52,529.84Z" transform="translate(-614 -524.97)"/><path class="cls-1" d="M721.5,529.32v5.19l.11-.08,1.29-1.9a6.71,6.71,0,0,1,1.63-1.6,9.83,9.83,0,0,1,3.91-1.83,10.47,10.47,0,0,1,4.24-.09,10.3,10.3,0,0,1,3.91,1.59,8.85,8.85,0,0,1,2.92,3.18,12.67,12.67,0,0,1,1,2.13,6.65,6.65,0,0,1,.42,2.29v10.49h-.84V538.64a6.69,6.69,0,0,0-.37-2.14,10.11,10.11,0,0,0-.87-2,9.67,9.67,0,0,0-2.12-2.58,9.27,9.27,0,0,0-5.78-2.17,9,9,0,0,0-3.05.44,9.16,9.16,0,0,0-5.06,4,13.17,13.17,0,0,0-.93,2,6.06,6.06,0,0,0-.42,2.14v10.38h-.92V529.32Z" transform="translate(-614 -524.97)"/><path class="cls-1" d="M741.11,548.86h-1.19V538.64a7,7,0,0,0-.35-2.09,10.61,10.61,0,0,0-.86-1.95,9.18,9.18,0,0,0-2.09-2.53,8.79,8.79,0,0,0-2.67-1.56,9.06,9.06,0,0,0-8.73,1.29,8.84,8.84,0,0,0-2.22,2.47,13.79,13.79,0,0,0-.92,2,6,6,0,0,0-.41,2.08v10.55h-1.26V529.14h1.26V534l1.09-1.59a6.75,6.75,0,0,1,1.67-1.66,10,10,0,0,1,4-1.85,10.81,10.81,0,0,1,4.31-.09,10.65,10.65,0,0,1,4,1.61,9.28,9.28,0,0,1,3,3.24,13,13,0,0,1,1,2.16,6.8,6.8,0,0,1,.43,2.35Zm-.84-.35h.49V538.2a6.35,6.35,0,0,0-.41-2.23,11.58,11.58,0,0,0-1-2.1,8.82,8.82,0,0,0-2.87-3.13,10.28,10.28,0,0,0-8-1.47,9.6,9.6,0,0,0-3.84,1.79,6.59,6.59,0,0,0-1.59,1.57l-1.3,1.9,0,.05-.38.26v-5.35h-.56v19h.56v-10.2a6.4,6.4,0,0,1,.43-2.2,13.57,13.57,0,0,1,1-2,9.12,9.12,0,0,1,2.31-2.57,9.45,9.45,0,0,1,9.06-1.34,9.17,9.17,0,0,1,2.78,1.62,9.46,9.46,0,0,1,2.16,2.62,10.88,10.88,0,0,1,.89,2,6.94,6.94,0,0,1,.37,2.19Z" transform="translate(-614 -524.97)"/><path class="cls-1" d="M744,534.78v-.67h2.33v-3.37a4.19,4.19,0,0,1,.07-.45,3.91,3.91,0,0,1,.12-.59,4.66,4.66,0,0,1,.75-1.57,5,5,0,0,1,1.21-1.16,5.25,5.25,0,0,1,1.54-.71,5.44,5.44,0,0,1,1.71-.18v.67a6.43,6.43,0,0,0-2.68.67,3.48,3.48,0,0,0-1.73,2.09,4.23,4.23,0,0,0-.23.71,3.35,3.35,0,0,0-.09.76v3.13h4.44v.67h-4.36l-.08.14v13.8h-.67V534.78Z" transform="translate(-614 -524.97)"/><path class="cls-1" d="M747.26,549h-1.2V535.05h-2.32v-1.2h2.32v-3.11a3.65,3.65,0,0,1,.07-.5c0-.28.09-.48.13-.62a5.15,5.15,0,0,1,.79-1.65,5.49,5.49,0,0,1,1.28-1.22,5.41,5.41,0,0,1,3.42-.93H752V527h-.26a6.1,6.1,0,0,0-2.57.64,3.21,3.21,0,0,0-1.6,1.94,4.51,4.51,0,0,0-.22.68,2.86,2.86,0,0,0-.09.7v2.87h4.45v1.2h-4.45Zm-.67-.53h.14V534.84l.2-.32h4.25v-.14h-4.45V531a3.83,3.83,0,0,1,.1-.82,6,6,0,0,1,.24-.75,3.74,3.74,0,0,1,1.86-2.22,6.7,6.7,0,0,1,2.54-.69v-.16a5.32,5.32,0,0,0-1.38.17,5,5,0,0,0-1.46.68,4.81,4.81,0,0,0-1.15,1.1,4.32,4.32,0,0,0-.71,1.48c0,.12-.07.3-.11.56s-.06.37-.07.42v3.63h-2.32v.14h2.32Z" transform="translate(-614 -524.97)"/><circle class="cls-1" cx="25.07" cy="11.3" r="0.56"/><path class="cls-1" d="M639.07,537.06a.79.79,0,0,1,0-1.58.79.79,0,1,1,0,1.58Zm0-1.11a.32.32,0,1,0,.33.32A.32.32,0,0,0,639.07,536Z" transform="translate(-614 -524.97)"/><circle class="cls-1" cx="32.34" cy="11.3" r="0.56"/><path class="cls-1" d="M646.34,537.06a.79.79,0,0,1,0-1.58.79.79,0,1,1,0,1.58Zm0-1.11a.32.32,0,1,0,.33.32A.32.32,0,0,0,646.34,536Z" transform="translate(-614 -524.97)"/><rect class="cls-1" x="21.74" width="13.97" height="1.09"/><path class="cls-1" d="M614,562.51a.23.23,0,0,1,.06-.16.25.25,0,0,1,.16-.06.22.22,0,0,1,.19.1l.11.14a1.35,1.35,0,0,0,.4.3,1.2,1.2,0,0,0,.57.13,1.19,1.19,0,0,0,.81-.29,1.22,1.22,0,0,0,.32-.39,1.15,1.15,0,0,0,.13-.55,1.12,1.12,0,0,0-.3-.78,1.14,1.14,0,0,0-.39-.3,1.22,1.22,0,0,0-.47-.13,1.55,1.55,0,0,1-.53-.15,1.27,1.27,0,0,1-.43-.33,1.46,1.46,0,0,1-.25-.41,1.23,1.23,0,0,1-.09-.47,1.31,1.31,0,0,1,.5-1,1.39,1.39,0,0,1,.92-.33,1.43,1.43,0,0,1,1.07.49l.14.18a.27.27,0,0,1,0,.12.18.18,0,0,1-.07.15.21.21,0,0,1-.15.07.18.18,0,0,1-.15-.06l-.14-.18a1,1,0,0,0-.66-.33,1,1,0,0,0-.7.22.87.87,0,0,0-.34.63,1.14,1.14,0,0,0,0,.37,1,1,0,0,0,.19.32.8.8,0,0,0,.29.23,1.06,1.06,0,0,0,.36.09,2,2,0,0,1,.64.19,1.73,1.73,0,0,1,.53.4,1.66,1.66,0,0,1,.3.49,1.49,1.49,0,0,1,.1.55,1.58,1.58,0,0,1-.17.78,1.79,1.79,0,0,1-1.52.91,1.76,1.76,0,0,1-1.32-.59l-.13-.17A.21.21,0,0,1,614,562.51Z" transform="translate(-614 -524.97)"/><path class="cls-1" d="M620.37,563a.25.25,0,0,1,.16.06.26.26,0,0,1,.07.16.21.21,0,0,1-.07.15.26.26,0,0,1-.16.07,1.25,1.25,0,0,1-1.43-1.39V559.9h-.37a.23.23,0,0,1-.16-.06.21.21,0,0,1-.07-.16.18.18,0,0,1,.07-.15.2.2,0,0,1,.16-.07h.37V558a.18.18,0,0,1,.07-.15.22.22,0,0,1,.16-.07.26.26,0,0,1,.16.07.2.2,0,0,1,.06.15v1.47h.68a.2.2,0,0,1,.16.07.18.18,0,0,1,.07.15.21.21,0,0,1-.07.16.23.23,0,0,1-.16.06h-.68V562A.86.86,0,0,0,620.37,563Z" transform="translate(-614 -524.97)"/><path class="cls-1" d="M625.47,563.18a.21.21,0,0,1-.07.15.22.22,0,0,1-.32,0,.21.21,0,0,1-.07-.15v-.41a2,2,0,0,1-1.42.63,1.87,1.87,0,0,1-1.33-.53,1.78,1.78,0,0,1-.55-1.3v-1.89a.21.21,0,0,1,.07-.15.2.2,0,0,1,.16-.07.21.21,0,0,1,.16.07.2.2,0,0,1,.06.15v1.89a1.3,1.3,0,0,0,.42,1,1.43,1.43,0,0,0,1,.41,1.41,1.41,0,0,0,1-.41,1.33,1.33,0,0,0,.41-1v-1.89a.21.21,0,0,1,.07-.15.22.22,0,0,1,.32,0,.21.21,0,0,1,.07.15Z" transform="translate(-614 -524.97)"/><path class="cls-1" d="M630.14,558a.22.22,0,0,1,.07-.16.25.25,0,0,1,.16-.06.23.23,0,0,1,.16.06.22.22,0,0,1,.07.16v3.43a1.85,1.85,0,0,1-.6,1.39,2.05,2.05,0,0,1-2.86,0,1.91,1.91,0,0,1,0-2.78,2.05,2.05,0,0,1,2.86,0l.14.14Zm0,3.43a1.44,1.44,0,0,0-.46-1.08,1.52,1.52,0,0,0-1.11-.45,1.56,1.56,0,0,0-1.12.45,1.5,1.5,0,0,0,0,2.16,1.56,1.56,0,0,0,1.12.45,1.52,1.52,0,0,0,1.11-.45A1.44,1.44,0,0,0,630.14,561.43Z" transform="translate(-614 -524.97)"/><path class="cls-1" d="M634.85,562.55a.21.21,0,0,1,.22.22.2.2,0,0,1-.06.15,2,2,0,0,1-1.32.48,2,2,0,0,1-1.43-.58,1.91,1.91,0,0,1,0-2.78,2.05,2.05,0,0,1,2.86,0,1.85,1.85,0,0,1,.6,1.39.18.18,0,0,1-.07.15.19.19,0,0,1-.16.07h-3.37a1.6,1.6,0,0,0,.46.86,1.54,1.54,0,0,0,1.11.45,1.49,1.49,0,0,0,1-.36A.27.27,0,0,1,634.85,562.55Zm.41-1.34a1.63,1.63,0,0,0-.45-.86,1.61,1.61,0,0,0-2.23,0,1.6,1.6,0,0,0-.46.86Z" transform="translate(-614 -524.97)"/><path class="cls-1" d="M636.79,559.68a.24.24,0,0,1,.22-.22.19.19,0,0,1,.16.07.18.18,0,0,1,.07.15v.41a2,2,0,0,1,1.43-.63A1.8,1.8,0,0,1,640,560a1.7,1.7,0,0,1,.55,1.29v1.89a.2.2,0,0,1-.06.15.26.26,0,0,1-.16.07.22.22,0,0,1-.16-.07.18.18,0,0,1-.07-.15v-1.89a1.29,1.29,0,0,0-.42-1,1.44,1.44,0,0,0-2,0,1.3,1.3,0,0,0-.42,1v1.89a.18.18,0,0,1-.07.15.22.22,0,0,1-.16.07.21.21,0,0,1-.15-.07.18.18,0,0,1-.07-.15Z" transform="translate(-614 -524.97)"/><path class="cls-1" d="M643.39,563a.22.22,0,0,1,.23.22.18.18,0,0,1-.07.15.22.22,0,0,1-.16.07A1.24,1.24,0,0,1,642,562V559.9h-.38a.21.21,0,0,1-.22-.22.2.2,0,0,1,.06-.15.21.21,0,0,1,.16-.07H642V558a.2.2,0,0,1,.06-.15.26.26,0,0,1,.16-.07.24.24,0,0,1,.16.07.18.18,0,0,1,.07.15v1.47h.68a.21.21,0,0,1,.16.07.2.2,0,0,1,.06.15.21.21,0,0,1-.22.22h-.68V562A.85.85,0,0,0,643.39,563Z" transform="translate(-614 -524.97)"/><path class="cls-1" d="M645.43,561.36h0l-.28-.12a.62.62,0,0,1-.17-.12.75.75,0,0,1-.25-.56A.78.78,0,0,1,645,560a1.82,1.82,0,0,1,1.36-.52,1.85,1.85,0,0,1,.84.19,2.2,2.2,0,0,1,.71.52.16.16,0,0,1,0,.12.23.23,0,0,1-.37.17l-.11-.11a1.54,1.54,0,0,0-1.11-.45,1.39,1.39,0,0,0-1.06.41.44.44,0,0,0-.1.3.28.28,0,0,0,.06.18.43.43,0,0,0,.17.12l1.85.59h0l.28.12a.83.83,0,0,1,.17.12.77.77,0,0,1,.24.56.75.75,0,0,1-.26.58,1.83,1.83,0,0,1-1.35.52,2,2,0,0,1-1.56-.71.16.16,0,0,1,0-.12.2.2,0,0,1,.07-.16.21.21,0,0,1,.16-.06.19.19,0,0,1,.14,0l.11.11a1.55,1.55,0,0,0,1.12.45,1.38,1.38,0,0,0,1-.4.45.45,0,0,0,.12-.31.33.33,0,0,0-.24-.3Z" transform="translate(-614 -524.97)"/><path class="cls-1" d="M657,560.59a2.65,2.65,0,0,1-.85,2,2.81,2.81,0,0,1-2,.83,2.91,2.91,0,0,1-2.68-1.74,2.73,2.73,0,0,1-.22-1.07,2.69,2.69,0,0,1,.85-2,2.84,2.84,0,0,1,2.05-.82,2.8,2.8,0,0,1,2,.82A2.66,2.66,0,0,1,657,560.59Zm-2.89-2.38a2.42,2.42,0,0,0-1.74.7,2.27,2.27,0,0,0-.71,1.68,2.3,2.3,0,0,0,.71,1.68,2.53,2.53,0,0,0,3.47,0,2.27,2.27,0,0,0,.72-1.68,2.24,2.24,0,0,0-.72-1.68A2.39,2.39,0,0,0,654.1,558.21Z" transform="translate(-614 -524.97)"/><path class="cls-1" d="M658.51,564.86a.23.23,0,0,1-.06.16.25.25,0,0,1-.16.06.21.21,0,0,1-.16-.06.2.2,0,0,1-.07-.16v-3.43a1.85,1.85,0,0,1,.6-1.39,2.05,2.05,0,0,1,2.86,0,1.91,1.91,0,0,1,0,2.78,2.05,2.05,0,0,1-2.86,0l-.15-.14Zm0-3.43a1.48,1.48,0,0,0,.46,1.08,1.55,1.55,0,0,0,1.12.45,1.52,1.52,0,0,0,1.11-.45,1.5,1.5,0,0,0,0-2.16,1.52,1.52,0,0,0-1.11-.45,1.55,1.55,0,0,0-1.12.45A1.48,1.48,0,0,0,658.51,561.43Z" transform="translate(-614 -524.97)"/><path class="cls-1" d="M666.37,562.55a.21.21,0,0,1,.22.22.2.2,0,0,1-.06.15,2,2,0,0,1-1.32.48,2,2,0,0,1-1.43-.58,1.91,1.91,0,0,1,0-2.78,2.05,2.05,0,0,1,2.86,0,1.85,1.85,0,0,1,.6,1.39.18.18,0,0,1-.07.15.19.19,0,0,1-.16.07h-3.37a1.6,1.6,0,0,0,1.57,1.31,1.49,1.49,0,0,0,1-.36A.27.27,0,0,1,666.37,562.55Zm.41-1.34a1.63,1.63,0,0,0-.45-.86,1.6,1.6,0,0,0-2.69.86Z" transform="translate(-614 -524.97)"/><path class="cls-1" d="M668.31,559.68a.24.24,0,0,1,.22-.22.19.19,0,0,1,.16.07.18.18,0,0,1,.07.15v.41a2,2,0,0,1,1.42-.63,1.8,1.8,0,0,1,1.33.54,1.7,1.7,0,0,1,.55,1.29v1.89a.2.2,0,0,1-.06.15.26.26,0,0,1-.16.07.22.22,0,0,1-.16-.07.18.18,0,0,1-.07-.15v-1.89a1.29,1.29,0,0,0-.42-1,1.4,1.4,0,0,0-1-.41,1.43,1.43,0,0,0-1,.41,1.33,1.33,0,0,0-.41,1v1.89a.18.18,0,0,1-.07.15.22.22,0,0,1-.16.07.21.21,0,0,1-.15-.07.18.18,0,0,1-.07-.15Z" transform="translate(-614 -524.97)"/><path class="cls-1" d="M675.28,562.51a.23.23,0,0,1,.06-.16.25.25,0,0,1,.16-.06.22.22,0,0,1,.19.1l.11.14a1.35,1.35,0,0,0,.4.3,1.21,1.21,0,0,0,.58.13,1.18,1.18,0,0,0,.8-.29,1.22,1.22,0,0,0,.32-.39,1,1,0,0,0,.13-.55,1.12,1.12,0,0,0-.3-.78,1.14,1.14,0,0,0-.39-.3,1.22,1.22,0,0,0-.47-.13,1.55,1.55,0,0,1-.53-.15,1.27,1.27,0,0,1-.43-.33,1.46,1.46,0,0,1-.25-.41,1.23,1.23,0,0,1-.09-.47,1.31,1.31,0,0,1,.5-1,1.39,1.39,0,0,1,.92-.33,1.43,1.43,0,0,1,1.07.49l.14.18a.27.27,0,0,1,0,.12.2.2,0,0,1-.06.15.26.26,0,0,1-.16.07.18.18,0,0,1-.15-.06l-.14-.18a1,1,0,0,0-.66-.33,1,1,0,0,0-.7.22.87.87,0,0,0-.34.63,1.14,1.14,0,0,0,0,.37,1,1,0,0,0,.19.32.8.8,0,0,0,.29.23,1.06,1.06,0,0,0,.36.09,1.91,1.91,0,0,1,.64.19,1.73,1.73,0,0,1,.53.4,1.66,1.66,0,0,1,.3.49,1.49,1.49,0,0,1,.1.55,1.58,1.58,0,0,1-.17.78,1.79,1.79,0,0,1-1.52.91,1.76,1.76,0,0,1-1.32-.59l-.13-.17A.21.21,0,0,1,675.28,562.51Z" transform="translate(-614 -524.97)"/><path class="cls-1" d="M683.66,561.43a1.88,1.88,0,0,1-.59,1.39,2,2,0,0,1-1.44.58,2,2,0,0,1-1.43-.58,1.93,1.93,0,0,1,0-2.78,2,2,0,0,1,1.43-.58,2,2,0,0,1,1.44.58A1.88,1.88,0,0,1,683.66,561.43Zm-2-1.53a1.54,1.54,0,0,0-1.11.45,1.48,1.48,0,0,0,0,2.16,1.61,1.61,0,0,0,2.23,0,1.5,1.5,0,0,0,0-2.16A1.55,1.55,0,0,0,681.63,559.9Z" transform="translate(-614 -524.97)"/><path class="cls-1" d="M688.48,563.18a.2.2,0,0,1-.06.15.26.26,0,0,1-.16.07.22.22,0,0,1-.16-.07.18.18,0,0,1-.07-.15v-.41a2,2,0,0,1-1.42.63,1.87,1.87,0,0,1-1.33-.53,1.74,1.74,0,0,1-.55-1.3v-1.89a.18.18,0,0,1,.07-.15.19.19,0,0,1,.16-.07.21.21,0,0,1,.16.07.2.2,0,0,1,.06.15v1.89a1.3,1.3,0,0,0,.42,1,1.41,1.41,0,0,0,1,.41,1.39,1.39,0,0,0,1-.41,1.3,1.3,0,0,0,.42-1v-1.89a.18.18,0,0,1,.07-.15.19.19,0,0,1,.16-.07.21.21,0,0,1,.16.07.2.2,0,0,1,.06.15Z" transform="translate(-614 -524.97)"/><path class="cls-1" d="M689.57,559.68a.18.18,0,0,1,.07-.15.19.19,0,0,1,.16-.07.24.24,0,0,1,.22.22v.5a2.24,2.24,0,0,1,1.58-.72,2,2,0,0,1,.77.14.26.26,0,0,1,.11.07.2.2,0,0,1,.06.15.22.22,0,0,1-.23.22l-.1,0a1.41,1.41,0,0,0-.61-.12,1.55,1.55,0,0,0-1.12.45,1.44,1.44,0,0,0-.46,1.08v1.75a.18.18,0,0,1-.07.15.21.21,0,0,1-.15.07.22.22,0,0,1-.16-.07.18.18,0,0,1-.07-.15Z" transform="translate(-614 -524.97)"/><path class="cls-1" d="M696.72,562.54a.21.21,0,0,1,.16.07.2.2,0,0,1,.06.15.2.2,0,0,1-.07.16,2.11,2.11,0,0,1-1.32.48,2,2,0,0,1-1.43-.58,1.91,1.91,0,0,1,0-2.78,2,2,0,0,1,1.43-.58,1.87,1.87,0,0,1,.71.13,1.94,1.94,0,0,1,.61.35l.06.07a.36.36,0,0,1,0,.1.2.2,0,0,1-.06.15.21.21,0,0,1-.16.07.2.2,0,0,1-.15-.06,1.61,1.61,0,0,0-2.14.08,1.5,1.5,0,0,0,0,2.16,1.54,1.54,0,0,0,1.11.45,1.45,1.45,0,0,0,.55-.1,1.64,1.64,0,0,0,.48-.28A.29.29,0,0,1,696.72,562.54Z" transform="translate(-614 -524.97)"/><path class="cls-1" d="M701.25,562.55a.21.21,0,0,1,.22.22.2.2,0,0,1-.06.15,2,2,0,0,1-1.32.48,2,2,0,0,1-1.43-.58,1.93,1.93,0,0,1,0-2.78,2,2,0,0,1,1.43-.58,2,2,0,0,1,1.44.58,1.88,1.88,0,0,1,.59,1.39.2.2,0,0,1-.06.15.21.21,0,0,1-.16.07h-3.38a1.67,1.67,0,0,0,.46.86,1.54,1.54,0,0,0,1.11.45,1.59,1.59,0,0,0,.55-.09,1.69,1.69,0,0,0,.47-.27A.24.24,0,0,1,701.25,562.55Zm.41-1.34a1.63,1.63,0,0,0-.45-.86,1.61,1.61,0,0,0-2.23,0,1.67,1.67,0,0,0-.46.86Z" transform="translate(-614 -524.97)"/><path class="cls-1" d="M709.88,562.41a.21.21,0,0,1,.22.22.19.19,0,0,1-.05.14,3.45,3.45,0,0,1-.86.47,3.12,3.12,0,0,1-1,.16,3,3,0,0,1-2.05-.83,3,3,0,0,1-.63-.91,2.56,2.56,0,0,1-.22-1.07,2.66,2.66,0,0,1,.85-2,3,3,0,0,1,3.88-.18.22.22,0,0,1-.15.37.26.26,0,0,1-.19-.09,2.32,2.32,0,0,0-1.49-.49,2.39,2.39,0,0,0-1.74.7,2.23,2.23,0,0,0-.71,1.68,2.26,2.26,0,0,0,.71,1.68,2.42,2.42,0,0,0,1.74.69,2.38,2.38,0,0,0,1.53-.52A.21.21,0,0,1,709.88,562.41Z" transform="translate(-614 -524.97)"/><path class="cls-1" d="M715.23,561.43a1.88,1.88,0,0,1-.59,1.39,2,2,0,0,1-1.44.58,2,2,0,0,1-1.43-.58,1.93,1.93,0,0,1,0-2.78,2,2,0,0,1,1.43-.58,2,2,0,0,1,1.44.58A1.88,1.88,0,0,1,715.23,561.43Zm-2-1.53a1.54,1.54,0,0,0-1.11.45,1.5,1.5,0,0,0,0,2.16,1.61,1.61,0,0,0,2.23,0,1.5,1.5,0,0,0,0-2.16A1.55,1.55,0,0,0,713.2,559.9Z" transform="translate(-614 -524.97)"/><path class="cls-1" d="M716.3,559.68a.18.18,0,0,1,.07-.15.19.19,0,0,1,.16-.07.21.21,0,0,1,.16.07.2.2,0,0,1,.06.15v.41a2,2,0,0,1,1.43-.63,1.8,1.8,0,0,1,1.32.54,1.71,1.71,0,0,1,.56,1.29v1.89a.21.21,0,0,1-.07.15.26.26,0,0,1-.16.07.22.22,0,0,1-.16-.07.18.18,0,0,1-.07-.15v-1.89a1.29,1.29,0,0,0-.42-1,1.39,1.39,0,0,0-1-.41,1.41,1.41,0,0,0-1,.41,1.3,1.3,0,0,0-.42,1v1.89a.2.2,0,0,1-.06.15.26.26,0,0,1-.16.07.22.22,0,0,1-.16-.07.18.18,0,0,1-.07-.15Z" transform="translate(-614 -524.97)"/><path class="cls-1" d="M723.32,557.78a.23.23,0,0,1,.16.06.22.22,0,0,1,.07.16.21.21,0,0,1-.07.15.2.2,0,0,1-.16.07c-.85,0-1.28.41-1.28,1.23v.23h1a.22.22,0,0,1,.23.22.18.18,0,0,1-.07.15.19.19,0,0,1-.16.07h-1v3.06a.2.2,0,0,1-.06.15.26.26,0,0,1-.16.07.24.24,0,0,1-.16-.07.18.18,0,0,1-.07-.15v-3.06h-.37a.2.2,0,0,1-.16-.07.18.18,0,0,1-.07-.15.21.21,0,0,1,.07-.16.23.23,0,0,1,.16-.06h.37v-.23A1.51,1.51,0,0,1,723.32,557.78Z" transform="translate(-614 -524.97)"/><path class="cls-1" d="M727.54,562.55a.22.22,0,0,1,.23.22.2.2,0,0,1-.06.15,2.05,2.05,0,0,1-2.75-.1,1.91,1.91,0,0,1,0-2.78,2.05,2.05,0,0,1,2.86,0,1.85,1.85,0,0,1,.6,1.39.18.18,0,0,1-.07.15.19.19,0,0,1-.16.07h-3.37a1.54,1.54,0,0,0,.46.86,1.52,1.52,0,0,0,1.11.45,1.49,1.49,0,0,0,1-.36A.24.24,0,0,1,727.54,562.55Zm.42-1.34a1.63,1.63,0,0,0-.45-.86,1.56,1.56,0,0,0-1.12-.45,1.52,1.52,0,0,0-1.11.45,1.54,1.54,0,0,0-.46.86Z" transform="translate(-614 -524.97)"/><path class="cls-1" d="M729.5,559.68a.2.2,0,0,1,.06-.15.22.22,0,0,1,.32,0,.2.2,0,0,1,.06.15v.5a2.24,2.24,0,0,1,1.58-.72,2.05,2.05,0,0,1,.78.14.23.23,0,0,1,.1.07.2.2,0,0,1,.06.15.25.25,0,0,1-.06.16.23.23,0,0,1-.16.06l-.1,0a1.46,1.46,0,0,0-.62-.12,1.54,1.54,0,0,0-1.11.45,1.45,1.45,0,0,0-.47,1.08v1.75a.2.2,0,0,1-.06.15.22.22,0,0,1-.32,0,.2.2,0,0,1-.06-.15Z" transform="translate(-614 -524.97)"/><path class="cls-1" d="M736.63,562.55a.23.23,0,0,1,.16.06.26.26,0,0,1,.07.16.2.2,0,0,1-.06.15,2,2,0,0,1-1.32.48,2,2,0,0,1-1.44-.58,1.93,1.93,0,0,1,0-2.78,2,2,0,0,1,1.44-.58,2,2,0,0,1,1.43.58,1.88,1.88,0,0,1,.59,1.39.2.2,0,0,1-.06.15.21.21,0,0,1-.16.07h-3.37a1.59,1.59,0,0,0,.45.86,1.55,1.55,0,0,0,1.12.45,1.67,1.67,0,0,0,.55-.09,1.64,1.64,0,0,0,.46-.27A.24.24,0,0,1,736.63,562.55Zm.41-1.34a1.56,1.56,0,0,0-.45-.86,1.61,1.61,0,0,0-2.23,0,1.59,1.59,0,0,0-.45.86Z" transform="translate(-614 -524.97)"/><path class="cls-1" d="M738.57,559.68a.21.21,0,0,1,.07-.15.2.2,0,0,1,.16-.07.21.21,0,0,1,.16.07.2.2,0,0,1,.06.15v.41a2.06,2.06,0,0,1,1.43-.63,1.8,1.8,0,0,1,1.32.54,1.71,1.71,0,0,1,.56,1.29v1.89a.18.18,0,0,1-.07.15.22.22,0,0,1-.32,0,.2.2,0,0,1-.06-.15v-1.89a1.29,1.29,0,0,0-.42-1,1.45,1.45,0,0,0-2,0,1.3,1.3,0,0,0-.42,1v1.89a.2.2,0,0,1-.06.15.26.26,0,0,1-.16.07.24.24,0,0,1-.16-.07.21.21,0,0,1-.07-.15Z" transform="translate(-614 -524.97)"/><path class="cls-1" d="M746.6,562.54a.21.21,0,0,1,.16.07.2.2,0,0,1,.06.15.2.2,0,0,1-.07.16,2.11,2.11,0,0,1-1.32.48,2,2,0,0,1-1.43-.58,1.91,1.91,0,0,1,0-2.78,2,2,0,0,1,1.43-.58,1.87,1.87,0,0,1,.71.13,1.94,1.94,0,0,1,.61.35l.06.07a.36.36,0,0,1,0,.1.2.2,0,0,1-.06.15.21.21,0,0,1-.16.07.2.2,0,0,1-.15-.06,1.61,1.61,0,0,0-2.14.08,1.5,1.5,0,0,0,0,2.16,1.52,1.52,0,0,0,1.11.45,1.49,1.49,0,0,0,.55-.1,1.64,1.64,0,0,0,.48-.28A.29.29,0,0,1,746.6,562.54Z" transform="translate(-614 -524.97)"/><path class="cls-1" d="M751.13,562.55a.21.21,0,0,1,.22.22.2.2,0,0,1-.06.15,2,2,0,0,1-1.32.48,2,2,0,0,1-1.43-.58,1.93,1.93,0,0,1,0-2.78,2,2,0,0,1,1.43-.58,2,2,0,0,1,1.44.58,1.88,1.88,0,0,1,.59,1.39.24.24,0,0,1-.22.22H748.4a1.6,1.6,0,0,0,.46.86A1.54,1.54,0,0,0,750,563a1.63,1.63,0,0,0,.55-.09,1.69,1.69,0,0,0,.47-.27A.22.22,0,0,1,751.13,562.55Zm.41-1.34a1.63,1.63,0,0,0-.45-.86,1.61,1.61,0,0,0-2.23,0,1.6,1.6,0,0,0-.46.86Z" transform="translate(-614 -524.97)"/></svg>