<svg id="图层_1" data-name="图层 1" xmlns="http://www.w3.org/2000/svg" viewBox="0 0 170.5 191.38"><defs><style>.cls-1{fill:#fff;}</style></defs><title>logo-github</title><path class="cls-1" d="M536,636.7a17.58,17.58,0,0,1-17.6-17.4l-.1-12.4c-34.5,7.5-41.8-14.6-41.8-14.6-5.6-14.3-13.8-18.1-13.8-18.1-11.3-7.7.9-7.5.9-7.5,12.4.9,19,12.8,19,12.8,11.1,19,29,13.5,36.1,10.3,1.1-8,4.3-13.5,7.9-16.6-27.5-3.1-56.5-13.8-56.5-61.3a47.84,47.84,0,0,1,12.8-33.3c-1.3-3.1-5.5-15.7,1.2-32.8,0,0,10.4-3.3,34.1,12.7a116.87,116.87,0,0,1,62.1,0c23.7-16,34.1-12.7,34.1-12.7,6.7,17.1,2.5,29.7,1.2,32.8a48.11,48.11,0,0,1,12.8,33.3c0,47.6-29,58.1-56.6,61.2,4.4,3.9,8.4,11.4,8.4,23,0,16.6-.1,23.4-.1,23.4a17.56,17.56,0,0,1-17.5,17.4l-26.6-.2Z" transform="translate(-457.9 -445.52)"/></svg>