<svg id="图层_1" data-name="图层 1" xmlns="http://www.w3.org/2000/svg" viewBox="0 0 16.1 12.91"><defs><style>.cls-1{fill:#fff;}</style></defs><title>logo-weibo</title><path class="cls-1" d="M543.3,539.8c0-.1,1.3-1.4,0-2.2s-3.8.4-3.7.3c1.1-1.8-.5-2.4-1.2-2.4-1.8,0-6.7,4-6.7,6.6s3.2,4.6,7.2,4.6,7.2-2.1,7.2-4.6C546,540,543.3,540,543.3,539.8Zm-4.3,5.6c-2.5.3-4.8-.7-5-2.3s1.6-3.3,4.2-3.6,4.8.7,5,2.3S541.6,545,539,545.4Z" transform="translate(-531.7 -533.79)"/><path class="cls-1" d="M545,539h0a.47.47,0,0,0,.5-.5,2.08,2.08,0,0,0-.5-2,2.38,2.38,0,0,0-1.8-.5c-.2,0-.4.2-.5.5a.46.46,0,0,0,.5.4,1.29,1.29,0,0,1,1.2.4,1.21,1.21,0,0,1,.1,1.3c-.1.2,0,.4.2.4Z" transform="translate(-531.7 -533.79)"/><path class="cls-1" d="M537.7,540.4a2.38,2.38,0,1,0,3.3,1.7A2.66,2.66,0,0,0,537.7,540.4Zm-.1,3.3a.89.89,0,0,1-1.1-.2c-.2-.3.1-.8.5-1a.89.89,0,0,1,1.1.2A.88.88,0,0,1,537.6,543.7Zm1.3-1.2a.45.45,0,0,1-.5,0,.52.52,0,0,1-.2-.4.47.47,0,0,1,.5-.5c.1,0,.2,0,.2.1a.52.52,0,0,1,.2.4C539.1,542.3,539,542.5,538.9,542.5Z" transform="translate(-531.7 -533.79)"/><path class="cls-1" d="M543,533.8a.75.75,0,0,0-.7.6.67.67,0,0,0,.7.6,3.44,3.44,0,0,1,2.9,1.1,3.86,3.86,0,0,1,.5,2.8c-.1.3.2.6.5.7h.1c.4,0,.6-.3.7-.7a4.36,4.36,0,0,0-1.1-3.9A5.24,5.24,0,0,0,543,533.8Z" transform="translate(-531.7 -533.79)"/></svg>