<svg id="图层_1" data-name="图层 1" xmlns="http://www.w3.org/2000/svg" xmlns:xlink="http://www.w3.org/1999/xlink" viewBox="0 0 15.7 11.5"><defs><style>.cls-1{fill:none;}.cls-2{clip-path:url(#clip-path);}.cls-3{fill:#fff;}</style><clipPath id="clip-path" transform="translate(-532.1 -534.3)"><rect id="SVGID" class="cls-1" x="532" y="534.2" width="15.8" height="11.5"/></clipPath></defs><title>logo-youtube</title><g class="cls-2"><path class="cls-3" d="M547.8,540v-.6a7.57,7.57,0,0,0-.1-1.5,8.75,8.75,0,0,0-.2-1.6,2.43,2.43,0,0,0-1.7-1.7,13.33,13.33,0,0,0-2.8-.3h-6a14.28,14.28,0,0,0-2.9.3,2.43,2.43,0,0,0-1.7,1.7,7.77,7.77,0,0,0-.2,1.6c0,.5-.1,1-.1,1.5v1.4a6.15,6.15,0,0,0,.1,1.4,8.75,8.75,0,0,0,.2,1.6,2.27,2.27,0,0,0,1.7,1.7,13.58,13.58,0,0,0,2.9.3h6a12.65,12.65,0,0,0,2.8-.3,2.27,2.27,0,0,0,1.7-1.7,7.77,7.77,0,0,0,.2-1.6c0-.5.1-1,.1-1.4V540Zm-1.3.1v.6a6.6,6.6,0,0,1-.1,1.4,5.07,5.07,0,0,1-.2,1.3,1.09,1.09,0,0,1-.8.8,21.12,21.12,0,0,1-2.6.2H537a22.75,22.75,0,0,1-2.6-.2,1.09,1.09,0,0,1-.8-.8,5.85,5.85,0,0,1-.2-1.3c0-.4-.1-.9-.1-1.4v-1.3a6.6,6.6,0,0,1,.1-1.4,5.07,5.07,0,0,1,.2-1.3,1.09,1.09,0,0,1,.8-.8,22.75,22.75,0,0,1,2.6-.2h5.8a22.75,22.75,0,0,1,2.6.2,1.09,1.09,0,0,1,.8.8,5.85,5.85,0,0,1,.2,1.3c0,.4.1.9.1,1.4v.7Zm-8.2,2.3,4.1-2.4-4.1-2.3Z" transform="translate(-532.1 -534.3)"/></g></svg>