<?xml version="1.0" encoding="utf-8"?>
<!-- Generator: Adobe Illustrator 23.0.2, SVG Export Plug-In . SVG Version: 6.00 Build 0)  -->
<svg version="1.1" id="图层_1" xmlns="http://www.w3.org/2000/svg" xmlns:xlink="http://www.w3.org/1999/xlink" x="0px" y="0px"
	 viewBox="0 0 32 32" style="enable-background:new 0 0 32 32;" xml:space="preserve">
<style type="text/css">
	.st0{fill:#FFFFFF;}
</style>
<title>未标题-1</title>
<path class="st0" d="M25,11.7c-3.5-0.5-7-1.1-10.5-1.7c-0.2,0-0.5,0-0.7,0c-2.1,0.6-4.3,1.2-6.4,1.8c-0.3,0.1-0.3,0.2-0.3,0.4v8.3
	c0,0.1,0,0.2,0.2,0.2c2,0.3,4,0.6,6,0.9c0.3,0.1,0.7,0.1,1,0.1c1.2-0.1,2.4-0.3,3.6-0.4c2.3-0.3,4.6-0.5,6.9-0.7
	c0.3,0,0.3-0.1,0.3-0.3v-4.2c0-1.4,0-2.8,0-4.2C25.3,11.8,25.2,11.7,25,11.7z M14.1,15.9v4.9c0,0.2,0,0.3-0.3,0.2l-5.7-0.9
	c-0.2,0-0.3-0.1-0.3-0.3v-7.2c0-0.2,0.1-0.2,0.3-0.3l5.7-1.6c0.3-0.1,0.3-0.1,0.3,0.2C14.1,12.6,14.1,14.2,14.1,15.9L14.1,15.9z
	 M24.5,19.6c0,0.2-0.1,0.3-0.4,0.3l-5.5,0.6c-1.2,0.1-2.3,0.2-3.5,0.4c-0.2,0-0.3,0-0.3-0.2v-9.5c0-0.2,0-0.3,0.3-0.3
	c3,0.5,6,0.9,8.9,1.4c0.3,0,0.4,0.1,0.4,0.4V19.6z"/>
<path class="st0" d="M17.9,16.6c-0.4-0.2-0.9-0.3-1.3-0.4c-0.2,0-0.3-0.6-0.2-0.6c0.1,0,0.1,0,0.2,0l1.9,0.7c0.1,0,0.2,0.1,0.2,0.2
	s0.1,0.3-0.2,0.5c-0.7,0.3-1.4,0.6-2.1,0.9c-0.2,0.1-0.2,0-0.2-0.1c0-0.5,0-0.5,0.5-0.6l1-0.4L17.9,16.6z"/>
<path class="st0" d="M20.6,18.5H21c0.2,0,0.3-0.1,0.3,0.2s0,0.3-0.3,0.3c-0.6,0-1.3,0-2,0.1c-0.1,0-0.3,0-0.2-0.2s0-0.3,0.2-0.3
	C19.6,18.6,20,18.5,20.6,18.5z"/>
<path class="st0" d="M9.3,18.9c-0.2,0-0.4-0.2-0.3-0.4c1.1-1.6,2.2-3.2,3.3-4.8c0-0.1,0.1-0.2,0.2-0.1s0.4,0.1,0.2,0.3
	c-0.4,0.6-0.8,1.2-1.2,1.8c-0.7,1-1.3,2-2,2.9C9.4,18.8,9.3,18.8,9.3,18.9z"/>
<path class="st0" d="M10.6,19.4c-0.2,0-0.4-0.3-0.3-0.4c0.8-1.2,1.6-2.3,2.4-3.5c0-0.1,0.1-0.2,0.2-0.1s0.4,0.1,0.2,0.3
	s-0.5,0.7-0.7,1c-0.6,0.8-1.1,1.6-1.7,2.4C10.7,19.3,10.7,19.4,10.6,19.4z"/>
<path class="st0" d="M8.9,17c-0.2,0-0.3-0.1-0.3-0.3c0,0,0-0.1,0-0.1c0.8-1.1,1.6-2.3,2.4-3.4c0-0.1,0.1-0.2,0.2-0.1
	s0.3,0.1,0.2,0.3s-0.3,0.5-0.5,0.8c-0.6,0.9-1.2,1.8-1.8,2.7C9,16.9,9,17,8.9,17z"/>
<path class="st0" d="M9.8,12.5c0.2,0,0.3,0.3,0.3,0.4L8.6,15c0,0.1-0.1,0.2-0.2,0.1S8,15,8.1,14.8c0.1-0.2,0.3-0.4,0.4-0.6
	c0.4-0.6,0.8-1.1,1.1-1.7C9.7,12.5,9.8,12.5,9.8,12.5z"/>
<path class="st0" d="M13.6,17.5c0,0-0.1,0.1-0.1,0.2c-0.5,0.7-1,1.4-1.5,2.1c0,0.1-0.1,0.2-0.2,0.1s-0.4-0.1-0.2-0.3l1.6-2.3
	c0,0,0.1-0.1,0.2-0.1C13.5,17.3,13.5,17.4,13.6,17.5z"/>
</svg>
